<svg width="32" height="32" viewBox="0 0 32 32" fill="none" xmlns="http://www.w3.org/2000/svg">
<circle cx="16" cy="16" r="16" fill="#F5B300"/>
<path d="M11.2396 7.49005C11.8272 7.6503 12.4147 7.75713 13.0023 7.91738C13.5899 8.07763 14.1775 8.18446 14.7651 8.34472C14.9253 8.39813 14.9788 8.34472 15.0322 8.18446C15.2458 7.27638 15.4595 6.42171 15.6732 5.51363C15.7266 5.35337 15.78 5.29996 15.9403 5.35337C16.4744 5.51363 16.9552 5.62046 17.4893 5.72729C17.6496 5.78071 17.6496 5.83413 17.5962 5.94096C17.3825 6.79563 17.1688 7.70371 16.9552 8.55838C16.9552 8.6118 16.9552 8.66522 16.9018 8.77205C17.3291 8.87888 17.8098 8.98572 18.2372 9.09255C18.2906 9.09255 18.344 8.98572 18.3974 8.9323C18.5577 8.23788 18.7179 7.59688 18.9316 6.90246C18.985 6.68879 19.0384 6.47513 19.0918 6.26146C19.0918 6.15463 19.1453 6.10121 19.2521 6.15463C19.7863 6.31488 20.3204 6.42171 20.908 6.58196C20.9614 6.58196 20.9614 6.63538 21.0148 6.63538C20.8546 7.3298 20.6943 7.9708 20.5341 8.6118C20.4807 8.87888 20.4273 9.14597 20.3204 9.41305C20.267 9.5733 20.3204 9.62672 20.4807 9.68014C21.0683 9.94722 21.6559 10.2143 22.2434 10.4814C22.7776 10.8019 23.2584 11.2292 23.6323 11.7634C24.113 12.5646 24.1664 13.4193 23.9528 14.274C23.7925 14.8616 23.5789 15.3957 23.1515 15.8231C22.831 16.1436 22.4037 16.3572 21.9764 16.5175C21.9229 16.5175 21.8695 16.5709 21.7627 16.5709C21.9764 16.7312 22.19 16.838 22.4037 16.9982C23.0447 17.479 23.472 18.0666 23.6857 18.8144C23.7925 19.402 23.7391 20.043 23.5789 20.6306C23.3652 21.3784 23.0981 22.0194 22.6174 22.607C22.0298 23.3014 21.2819 23.6753 20.4273 23.7822C19.3055 23.9424 18.2372 23.8356 17.1688 23.6753C17.0086 23.6219 16.9018 23.6753 16.8483 23.8356C16.6347 24.6903 16.421 25.5983 16.2073 26.453C16.1539 26.6667 16.1539 26.7201 15.8868 26.6133C15.4061 26.5064 14.8719 26.3462 14.3912 26.2393C14.2309 26.1859 14.2309 26.1325 14.2843 26.0257C14.498 25.1176 14.7117 24.2095 14.9788 23.3548C14.9788 23.248 15.0322 23.1946 14.9253 23.1412C14.498 23.0343 14.0707 22.9275 13.5899 22.8207C13.4831 23.3014 13.3228 23.7822 13.216 24.2629C13.1092 24.7437 12.9489 25.2244 12.8421 25.7052C12.7887 25.812 12.7887 25.8654 12.6284 25.812C12.0942 25.6518 11.5601 25.5449 11.0259 25.4381C10.8657 25.3847 10.8657 25.3313 10.9191 25.2244C11.1327 24.3163 11.3464 23.4083 11.6135 22.5536C11.6135 22.5002 11.6669 22.4467 11.6669 22.3399C10.4383 22.0194 9.20974 21.6989 7.92773 21.3784C8.03457 21.1647 8.08798 21.0045 8.19482 20.7908C8.40849 20.3101 8.62215 19.8293 8.7824 19.402C8.83582 19.2417 8.88924 19.2417 9.04949 19.2417C9.4234 19.3486 9.85074 19.4554 10.2247 19.5088C10.652 19.6157 10.9725 19.402 11.0259 19.0281C11.7203 16.3038 12.4147 13.5796 13.0557 10.8019C13.1626 10.3746 12.8955 9.8938 12.4147 9.73355C11.934 9.5733 11.4532 9.46647 11.0259 9.35963C10.9191 9.35963 10.8657 9.30622 10.9191 9.19938C11.0793 8.6118 11.2396 7.9708 11.3998 7.38321C11.1862 7.54346 11.1862 7.54346 11.2396 7.49005ZM13.9638 20.684C14.0172 20.684 14.0707 20.7374 14.0707 20.7374C14.9253 20.9511 15.8334 21.2182 16.7415 21.2716C17.3825 21.325 17.9701 21.325 18.5577 21.1113C19.5726 20.7908 19.9999 19.4554 19.4123 18.6007C19.1453 18.1734 18.7179 17.9063 18.2906 17.6392C17.3291 17.1051 16.2073 16.8914 15.139 16.6777C14.9788 16.6243 14.9788 16.6777 14.9253 16.838C14.8185 17.3722 14.6582 17.8529 14.5514 18.3871C14.3377 19.1349 14.1775 19.8827 13.9638 20.684ZM18.4508 15.2355C18.5577 15.2355 18.8248 15.1821 19.0384 15.1286C20.0533 14.915 20.5875 13.7398 20.0533 12.8317C19.7863 12.351 19.3055 12.0305 18.8248 11.8168C18.0769 11.4963 17.3291 11.3361 16.5278 11.1224C16.3676 11.069 16.3142 11.1224 16.2608 11.2826C15.9937 12.4044 15.7266 13.4727 15.4061 14.5945C15.3527 14.7013 15.4061 14.7547 15.5129 14.8081C15.7266 14.8616 15.8868 14.915 16.1005 14.9684C16.9018 15.0752 17.5962 15.2355 18.4508 15.2355Z" fill="white"/>
</svg>
