<?xml version="1.0" encoding="UTF-8"?>
<!DOCTYPE svg PUBLIC "-//W3C//DTD SVG 1.1//EN" "http://www.w3.org/Graphics/SVG/1.1/DTD/svg11.dtd">
<svg xmlns="http://www.w3.org/2000/svg" version="1.1" width="2084px" height="2084px" style="shape-rendering:geometricPrecision; text-rendering:geometricPrecision; image-rendering:optimizeQuality; fill-rule:evenodd; clip-rule:evenodd" xmlns:xlink="http://www.w3.org/1999/xlink">
<g><path style="opacity:0.999" fill="#e5e1d2" d="M 993.5,119.5 C 1280.38,110.452 1525.21,206.119 1728,406.5C 1890.39,575.7 1980.39,778.034 1998,1013.5C 2012.07,1277.32 1933.73,1508.98 1763,1708.5C 1606.97,1882.96 1412.47,1988.13 1179.5,2024C 926.947,2056.86 696.281,2001.19 487.5,1857C 302.76,1722.53 179.594,1544.7 118,1323.5C 73.4736,1151.3 75.4736,979.638 124,808.5C 187.507,596.848 308.34,426.348 486.5,297C 638.392,190.086 807.392,130.919 993.5,119.5 Z"/></g>
<g><path style="opacity:1" fill="#df9806" d="M 516.5,1122.5 C 516.5,1124.83 516.5,1127.17 516.5,1129.5C 464.997,1129.83 413.664,1129.5 362.5,1128.5C 366.501,1123.66 370.334,1118.66 374,1113.5C 374.723,1110.88 373.723,1109.21 371,1108.5C 365.491,1109.61 360.324,1111.61 355.5,1114.5C 352.987,1112.49 350.154,1111.16 347,1110.5C 344.205,1111.96 342.039,1114.13 340.5,1117C 336.128,1117.42 331.795,1118.09 327.5,1119C 326.236,1120.86 325.236,1122.86 324.5,1125C 325.32,1126.8 325.986,1128.63 326.5,1130.5C 323.833,1130.5 321.167,1130.5 318.5,1130.5C 317.265,1101.16 317.265,1071.83 318.5,1042.5C 319.5,1042.5 320.5,1042.5 321.5,1042.5C 321.5,1041.5 321.5,1040.5 321.5,1039.5C 320.5,1039.5 319.5,1039.5 318.5,1039.5C 323.76,922.064 356.093,812.73 415.5,711.5C 418.768,710.513 422.102,710.18 425.5,710.5C 424.653,706.923 423.487,703.59 422,700.5C 439.966,669.565 460.633,640.565 484,613.5C 484.22,617.95 486.386,620.95 490.5,622.5C 491.489,618.893 491.823,615.226 491.5,611.5C 489.801,611.66 488.134,611.494 486.5,611C 495.756,599.073 505.756,587.74 516.5,577C 525.517,576.318 530.017,571.484 530,562.5C 607.385,485.194 697.885,428.194 801.5,391.5C 801.04,451.833 800.54,512.166 800,572.5C 798.733,577.435 797.9,582.435 797.5,587.5C 798.5,587.5 799.5,587.5 800.5,587.5C 800.807,593.093 800.473,598.593 799.5,604C 771.883,618.381 745.716,634.881 721,653.5C 716.926,650.53 713.259,650.863 710,654.5C 709.243,657.476 710.409,659.309 713.5,660C 661.158,702.319 618.325,752.486 585,810.5C 579.736,810.598 576.902,813.265 576.5,818.5C 577.5,818.5 578.5,818.5 579.5,818.5C 548.833,876.669 528.666,938.336 519,1003.5C 514.176,1043.08 513.343,1082.75 516.5,1122.5 Z"/></g>
<g><path style="opacity:1" fill="#fdf3e7" d="M 724.5,507.5 C 728.273,507.263 731.94,507.763 735.5,509C 736.747,510.494 736.747,511.994 735.5,513.5C 730.23,514.451 724.897,514.785 719.5,514.5C 719.343,513.127 719.51,511.793 720,510.5C 721.652,509.601 723.152,508.601 724.5,507.5 Z"/></g>
<g><path style="opacity:1" fill="#fdf6ee" d="M 696.5,531.5 C 698.167,531.5 699.833,531.5 701.5,531.5C 701.485,539.196 700.985,546.862 700,554.5C 690.094,564.554 678.26,569.054 664.5,568C 662.963,566.89 662.297,565.39 662.5,563.5C 669.181,560.743 676.181,558.743 683.5,557.5C 684.021,553.281 682.854,549.614 680,546.5C 680.629,537.221 685.796,532.721 695.5,533C 696.056,532.617 696.389,532.117 696.5,531.5 Z"/></g>
<g><path style="opacity:1" fill="#fbebd2" d="M 733.5,538.5 C 735.833,538.5 738.167,538.5 740.5,538.5C 740.714,540.144 740.38,541.644 739.5,543C 737.19,543.497 734.857,543.663 732.5,543.5C 732.629,541.784 732.962,540.117 733.5,538.5 Z"/></g>
<g><path style="opacity:1" fill="#fdf3e5" d="M 609.5,541.5 C 611.792,541.244 613.959,541.577 616,542.5C 617.989,546.253 618.822,550.253 618.5,554.5C 612.939,553.104 607.273,552.438 601.5,552.5C 602.619,547.713 605.286,544.047 609.5,541.5 Z"/></g>
<g><path style="opacity:1" fill="#fdf3e7" d="M 657.5,541.5 C 659.144,541.286 660.644,541.62 662,542.5C 662.758,544.769 662.591,546.936 661.5,549C 660.216,549.684 659.049,549.517 658,548.5C 657.503,546.19 657.337,543.857 657.5,541.5 Z"/></g>
<g><path style="opacity:1" fill="#fbead1" d="M 792.5,552.5 C 793.5,552.5 794.5,552.5 795.5,552.5C 795.5,553.833 795.5,555.167 795.5,556.5C 794.167,556.5 792.833,556.5 791.5,556.5C 791.433,555.041 791.766,553.708 792.5,552.5 Z"/></g>
<g><path style="opacity:1" fill="#fbeeda" d="M 649.5,553.5 C 651.5,553.5 653.5,553.5 655.5,553.5C 656.321,559.158 654.154,560.825 649,558.5C 648.36,556.735 648.527,555.068 649.5,553.5 Z"/></g>
<g><path style="opacity:1" fill="#fcf0df" d="M 674.5,574.5 C 677.675,574.503 680.508,575.503 683,577.5C 683.145,580.204 681.978,582.204 679.5,583.5C 675.533,581.908 673.866,578.908 674.5,574.5 Z"/></g>
<g><path style="opacity:1" fill="#fbf0df" d="M 746.5,578.5 C 750.439,578.178 751.272,579.511 749,582.5C 747.112,584.631 745.612,584.631 744.5,582.5C 744.752,580.927 745.418,579.594 746.5,578.5 Z"/></g>
<g><path style="opacity:1" fill="#fdf6ef" d="M 615.5,582.5 C 619.605,582.234 623.605,582.734 627.5,584C 628.701,584.903 629.535,586.069 630,587.5C 629.517,595.18 633.017,599.847 640.5,601.5C 642.519,604.692 645.519,606.192 649.5,606C 652.509,609.043 655.509,612.043 658.5,615C 661.562,615.741 664.562,615.575 667.5,614.5C 668.605,610.473 669.771,606.473 671,602.5C 673.642,599.971 676.808,598.971 680.5,599.5C 680.704,602.518 681.037,605.518 681.5,608.5C 685.711,606.922 690.044,606.422 694.5,607C 695.022,607.561 695.355,608.228 695.5,609C 692.348,613.489 689.181,617.989 686,622.5C 685.857,630.229 685.19,637.895 684,645.5C 679,647.212 675.834,645.379 674.5,640C 675.363,637.773 676.363,635.607 677.5,633.5C 672.542,630.153 668.875,631.153 666.5,636.5C 667.137,639.107 668.304,641.44 670,643.5C 671.666,649.331 669.499,651.998 663.5,651.5C 663.96,646.511 662.96,641.844 660.5,637.5C 656.056,634.559 652.056,631.059 648.5,627C 642.959,624.271 638.292,625.271 634.5,630C 633.207,630.49 631.873,630.657 630.5,630.5C 630.256,621.292 628.756,612.292 626,603.5C 622.721,600.221 619.387,596.887 616,593.5C 615.501,589.848 615.335,586.182 615.5,582.5 Z"/></g>
<g><path style="opacity:1" fill="#fcf1e2" d="M 508.5,593.5 C 510.337,593.639 510.67,594.306 509.5,595.5C 508.702,595.043 508.369,594.376 508.5,593.5 Z"/></g>
<g><path style="opacity:1" fill="#fbedd8" d="M 589.5,596.5 C 590.675,596.281 591.675,596.614 592.5,597.5C 590.948,598.798 589.948,598.465 589.5,596.5 Z"/></g>
<g><path style="opacity:1" fill="#fcecd7" d="M 530.5,602.5 C 535.943,602.201 536.61,603.535 532.5,606.5C 530.889,605.68 530.222,604.346 530.5,602.5 Z"/></g>
<g><path style="opacity:1" fill="#fdf4e8" d="M 716.5,611.5 C 720.547,611.535 723.214,613.535 724.5,617.5C 727.595,619.114 730.261,618.614 732.5,616C 734.473,615.505 736.473,615.338 738.5,615.5C 738.822,617.722 738.155,619.556 736.5,621C 728.498,626.056 719.831,629.222 710.5,630.5C 712.297,626.229 714.13,621.896 716,617.5C 716.495,615.527 716.662,613.527 716.5,611.5 Z"/></g>
<g><path style="opacity:1" fill="#fcf1e3" d="M 520.5,614.5 C 522.199,614.34 523.866,614.506 525.5,615C 526.951,618.206 525.951,619.873 522.5,620C 520.845,618.556 520.178,616.722 520.5,614.5 Z"/></g>
<g><path style="opacity:1" fill="#f9e8cc" d="M 612.5,613.5 C 615.928,614.235 616.094,615.902 613,618.5C 612.506,616.866 612.34,615.199 612.5,613.5 Z"/></g>
<g><path style="opacity:1" fill="#fbefdc" d="M 533.5,631.5 C 534.833,631.5 536.167,631.5 537.5,631.5C 537.5,634.833 535.833,636.5 532.5,636.5C 532.366,634.708 532.699,633.042 533.5,631.5 Z"/></g>
<g><path style="opacity:1" fill="#fcf1e4" d="M 723.5,640.5 C 725.144,640.286 726.644,640.62 728,641.5C 728.495,643.473 728.662,645.473 728.5,647.5C 726.856,647.714 725.356,647.38 724,646.5C 723.505,644.527 723.338,642.527 723.5,640.5 Z"/></g>
<g><path style="opacity:1" fill="#fdf8f1" d="M 487.5,652.5 C 496.098,652.483 504.098,654.649 511.5,659C 519.13,666.983 517.797,671.649 507.5,673C 510.443,676.301 513.11,679.801 515.5,683.5C 516.689,684.429 518.022,684.762 519.5,684.5C 518.45,675.844 521.95,672.844 530,675.5C 533.732,680.906 537.065,686.573 540,692.5C 543.358,695.358 546.858,698.025 550.5,700.5C 549.222,705.187 549.389,709.854 551,714.5C 552.849,717.538 554.682,720.538 556.5,723.5C 556.392,724.442 556.059,725.275 555.5,726C 551.757,727.136 548.09,728.47 544.5,730C 541.591,733.374 539.424,737.207 538,741.5C 532.544,744.144 527.711,747.644 523.5,752C 520.692,752.92 518.525,752.087 517,749.5C 514.096,746.358 512.262,742.691 511.5,738.5C 505.056,737.971 499.889,740.305 496,745.5C 493.421,750.992 490.588,756.325 487.5,761.5C 486.707,761.931 485.873,762.265 485,762.5C 480.978,760.726 476.812,760.226 472.5,761C 470.787,762.378 469.453,764.045 468.5,766C 463.792,767.247 459.126,768.247 454.5,769C 447.766,765.772 443.433,760.606 441.5,753.5C 441.667,752.5 441.833,751.5 442,750.5C 446.701,746.134 451.034,741.467 455,736.5C 455.667,734.167 455.667,731.833 455,729.5C 453.344,727.854 452.511,725.854 452.5,723.5C 452.997,720.175 453.997,717.009 455.5,714C 450.515,706.607 443.515,703.774 434.5,705.5C 434.677,701.474 436.677,698.641 440.5,697C 446.392,696.531 452.225,695.697 458,694.5C 460.685,694.563 462.851,695.563 464.5,697.5C 466.512,690.453 468.678,683.453 471,676.5C 477.446,673.177 480.446,667.844 480,660.5C 482.028,657.308 484.528,654.641 487.5,652.5 Z"/></g>
<g><path style="opacity:1" fill="#e09d1c" d="M 490.5,663.5 C 496.656,663.325 499.323,666.325 498.5,672.5C 495.538,673.061 492.705,674.061 490,675.5C 485.916,674.775 484.582,672.442 486,668.5C 487.707,666.963 489.207,665.296 490.5,663.5 Z"/></g>
<g><path style="opacity:1" fill="#fcf1e3" d="M 536.5,668.5 C 537.833,668.5 539.167,668.5 540.5,668.5C 540.5,669.5 540.5,670.5 540.5,671.5C 539.167,671.5 537.833,671.5 536.5,671.5C 536.5,670.5 536.5,669.5 536.5,668.5 Z"/></g>
<g><path style="opacity:1" fill="#f1ce8e" d="M 499.5,702.5 C 500.919,701.549 502.585,701.216 504.5,701.5C 504.768,703.099 504.434,704.432 503.5,705.5C 503.5,704.5 503.5,703.5 503.5,702.5C 502.167,702.5 500.833,702.5 499.5,702.5 Z"/></g>
<g><path style="opacity:1" fill="#df9c17" d="M 499.5,702.5 C 500.833,702.5 502.167,702.5 503.5,702.5C 503.5,703.5 503.5,704.5 503.5,705.5C 502.713,707.104 501.38,707.771 499.5,707.5C 499.5,705.833 499.5,704.167 499.5,702.5 Z"/></g>
<g><path style="opacity:1" fill="#e2a22b" d="M 530.5,711.5 C 534.908,711.062 536.575,713.062 535.5,717.5C 533.5,717.5 531.5,717.5 529.5,717.5C 529.325,715.379 529.659,713.379 530.5,711.5 Z"/></g>
<g><path style="opacity:1" fill="#e5aa3f" d="M 491.5,714.5 C 492.5,714.5 493.5,714.5 494.5,714.5C 494.833,718.833 492.833,720.833 488.5,720.5C 488.615,718.053 489.615,716.053 491.5,714.5 Z"/></g>
<g><path style="opacity:1" fill="#fdf3e6" d="M 426.5,720.5 C 427.5,720.5 428.5,720.5 429.5,720.5C 429.797,724.911 428.631,728.911 426,732.5C 418.817,737.838 413.817,744.838 411,753.5C 407.644,757.948 403.644,758.615 399,755.5C 398.333,753.833 398.333,752.167 399,750.5C 406.371,743.46 414.038,736.794 422,730.5C 423.786,727.264 425.286,723.93 426.5,720.5 Z"/></g>
<g><path style="opacity:1" fill="#020202" d="M 954.5,727.5 C 990.121,725.026 1025.12,728.526 1059.5,738C 1065.74,739.745 1071.74,742.078 1077.5,745C 1078.02,745.561 1078.36,746.228 1078.5,747C 1074.53,759.895 1070.37,772.729 1066,785.5C 1065.61,786.428 1064.95,787.095 1064,787.5C 1017.11,768.565 969.608,766.732 921.5,782C 872.497,802.346 842.33,838.512 831,890.5C 820.418,941.246 827.084,989.579 851,1035.5C 882.087,1079.84 924.92,1101.51 979.5,1100.5C 995.98,1100.55 1012.31,1099.05 1028.5,1096C 1041.61,1092.46 1054.61,1088.63 1067.5,1084.5C 1070.83,1097.14 1074.16,1109.8 1077.5,1122.5C 1077.43,1123.77 1077.1,1124.94 1076.5,1126C 1025.47,1144.84 973.14,1149.5 919.5,1140C 844.475,1121.64 797.308,1075.14 778,1000.5C 762.137,935.378 771.137,874.045 805,816.5C 841.789,765.179 891.623,735.512 954.5,727.5 Z"/></g>
<g><path style="opacity:1" fill="#fdf3e8" d="M 437.5,728.5 C 438.833,728.5 440.167,728.5 441.5,728.5C 441.5,730.833 441.5,733.167 441.5,735.5C 440.167,735.5 438.833,735.5 437.5,735.5C 437.5,733.167 437.5,730.833 437.5,728.5 Z"/></g>
<g><path style="opacity:1" fill="#020202" d="M 1258.5,727.5 C 1359.25,722.478 1424.75,767.811 1455,863.5C 1464.61,908.411 1464.95,953.411 1456,998.5C 1433.7,1087.47 1376.86,1136.3 1285.5,1145C 1187.83,1144.99 1126.33,1097.82 1101,1003.5C 1087.27,946.062 1091.61,890.062 1114,835.5C 1143.15,774.193 1191.32,738.193 1258.5,727.5 Z"/></g>
<g><path style="opacity:1" fill="#000000" d="M 1566.5,977.5 C 1565.79,976.596 1564.79,976.263 1563.5,976.5C 1563.5,986.833 1563.5,997.167 1563.5,1007.5C 1562.55,1050.82 1562.22,1094.15 1562.5,1137.5C 1545.5,1137.5 1528.5,1137.5 1511.5,1137.5C 1511.5,1004.5 1511.5,871.5 1511.5,738.5C 1549.91,732.094 1588.57,729.927 1627.5,732C 1661.66,732.055 1692.66,741.722 1720.5,761C 1747.21,784.265 1760.54,813.765 1760.5,849.5C 1758.9,911.539 1728.57,952.039 1669.5,971C 1635.59,980.372 1601.25,982.539 1566.5,977.5 Z"/></g>
<g><path style="opacity:1" fill="#fcefdc" d="M 532.5,748.5 C 535.91,748.384 537.244,750.05 536.5,753.5C 534.833,753.5 533.167,753.5 531.5,753.5C 531.366,751.708 531.699,750.042 532.5,748.5 Z"/></g>
<g><path style="opacity:1" fill="#fcf0e0" d="M 536.5,756.5 C 541.167,756.5 543.5,758.833 543.5,763.5C 537.5,764.833 535.167,762.5 536.5,756.5 Z"/></g>
<g><path style="opacity:1" fill="#fdf1e3" d="M 520.5,769.5 C 522.527,769.338 524.527,769.505 526.5,770C 535.027,779.74 533.027,781.906 520.5,776.5C 519.425,774.189 519.425,771.856 520.5,769.5 Z"/></g>
<g><path style="opacity:1" fill="#e5e1d2" d="M 1258.5,770.5 C 1318.28,765.295 1361.45,789.295 1388,842.5C 1408.82,889.52 1413.49,938.186 1402,988.5C 1396.56,1008.71 1388.89,1028.04 1379,1046.5C 1344.69,1095.17 1298.52,1112 1240.5,1097C 1202.36,1081.52 1176.52,1054.36 1163,1015.5C 1145.05,962.138 1145.05,908.805 1163,855.5C 1172.81,831.691 1187.31,811.191 1206.5,794C 1222.3,782.595 1239.64,774.761 1258.5,770.5 Z"/></g>
<g><path style="opacity:1" fill="#fdf3e7" d="M 549.5,771.5 C 555.313,771.062 556.98,773.562 554.5,779C 548.593,779.746 546.927,777.246 549.5,771.5 Z"/></g>
<g><path style="opacity:1" fill="#e4e0d1" d="M 1582.5,772.5 C 1603.59,772.076 1624.59,773.242 1645.5,776C 1690.06,787.224 1710.56,815.724 1707,861.5C 1700.68,905.823 1675.18,930.656 1630.5,936C 1607.74,938.443 1585.07,937.943 1562.5,934.5C 1562.37,881.829 1562.7,829.163 1563.5,776.5C 1569.99,775.291 1576.32,773.957 1582.5,772.5 Z"/></g>
<g><path style="opacity:1" fill="#fcf1e3" d="M 469.5,780.5 C 470.822,780.33 471.989,780.663 473,781.5C 473.497,783.81 473.663,786.143 473.5,788.5C 470.873,789.092 468.206,789.425 465.5,789.5C 465.34,787.801 465.506,786.134 466,784.5C 467.376,783.295 468.542,781.962 469.5,780.5 Z"/></g>
<g><path style="opacity:1" fill="#fdf4e8" d="M 557.5,780.5 C 564.668,781.812 567.668,786.145 566.5,793.5C 559.794,795.643 556.127,793.143 555.5,786C 555.395,783.822 556.061,781.988 557.5,780.5 Z"/></g>
<g><path style="opacity:1" fill="#737169" d="M 1511.5,738.5 C 1511.5,871.5 1511.5,1004.5 1511.5,1137.5C 1528.5,1137.5 1545.5,1137.5 1562.5,1137.5C 1545.01,1138.5 1527.34,1138.83 1509.5,1138.5C 1509.33,1034.83 1509.5,931.166 1510,827.5C 1510.17,797.664 1510.67,767.997 1511.5,738.5 Z"/></g>
<g><path style="opacity:1" fill="#fae8ce" d="M 378.5,857.5 C 380.337,857.639 380.67,858.306 379.5,859.5C 378.702,859.043 378.369,858.376 378.5,857.5 Z"/></g>
<g><path style="opacity:1" fill="#fbebd3" d="M 416.5,934.5 C 418.167,934.5 419.833,934.5 421.5,934.5C 421.5,935.5 421.5,936.5 421.5,937.5C 419.833,937.5 418.167,937.5 416.5,937.5C 416.5,936.5 416.5,935.5 416.5,934.5 Z"/></g>
<g><path style="opacity:1" fill="#fcf1e1" d="M 451.5,982.5 C 456.068,982.083 457.568,984.083 456,988.5C 453.144,991.435 451.311,990.935 450.5,987C 450.773,985.467 451.106,983.967 451.5,982.5 Z"/></g>
<g><path style="opacity:1" fill="#fbead1" d="M 469.5,988.5 C 473.013,989.028 474.013,990.862 472.5,994C 468.537,994.118 467.537,992.284 469.5,988.5 Z"/></g>
<g><path style="opacity:1" fill="#fbedda" d="M 371.5,991.5 C 372.5,991.5 373.5,991.5 374.5,991.5C 374.5,992.5 374.5,993.5 374.5,994.5C 373.5,994.5 372.5,994.5 371.5,994.5C 371.5,993.5 371.5,992.5 371.5,991.5 Z"/></g>
<g><path style="opacity:1" fill="#f3cf91" d="M 382.5,989.5 C 384.176,990.183 384.843,991.517 384.5,993.5C 383.5,993.5 382.5,993.5 381.5,993.5C 381.433,992.041 381.766,990.708 382.5,989.5 Z"/></g>
<g><path style="opacity:1" fill="#fbeedb" d="M 340.5,993.5 C 344.071,993.408 345.238,995.074 344,998.5C 341.765,1000.2 339.265,1001.2 336.5,1001.5C 336.776,998.281 338.109,995.615 340.5,993.5 Z"/></g>
<g><path style="opacity:1" fill="#b7b3a8" d="M 1566.5,977.5 C 1564.84,987.292 1563.84,997.292 1563.5,1007.5C 1563.5,997.167 1563.5,986.833 1563.5,976.5C 1564.79,976.263 1565.79,976.596 1566.5,977.5 Z"/></g>
<g><path style="opacity:1" fill="#fdf4e9" d="M 397.5,1012.5 C 399.256,1013.55 399.923,1015.22 399.5,1017.5C 398.5,1017.5 397.5,1017.5 396.5,1017.5C 396.366,1015.71 396.699,1014.04 397.5,1012.5 Z"/></g>
<g><path style="opacity:1" fill="#fdf3e6" d="M 417.5,1015.5 C 422.894,1014.55 424.561,1016.55 422.5,1021.5C 416.74,1023.21 415.074,1021.21 417.5,1015.5 Z"/></g>
<g><path style="opacity:1" fill="#faead1" d="M 357.5,1016.5 C 361.409,1015.74 362.742,1017.07 361.5,1020.5C 358.08,1021.75 356.746,1020.42 357.5,1016.5 Z"/></g>
<g><path style="opacity:1" fill="#fdf2e5" d="M 390.5,1021.5 C 391.833,1021.5 393.167,1021.5 394.5,1021.5C 395.588,1029.25 392.422,1032.25 385,1030.5C 384.333,1028.83 384.333,1027.17 385,1025.5C 386.812,1024.02 388.645,1022.69 390.5,1021.5 Z"/></g>
<g><path style="opacity:1" fill="#f8dfb6" d="M 442.5,1022.5 C 443.5,1022.5 444.5,1022.5 445.5,1022.5C 445.5,1023.5 445.5,1024.5 445.5,1025.5C 444.5,1025.5 443.5,1025.5 442.5,1025.5C 442.5,1024.5 442.5,1023.5 442.5,1022.5 Z"/></g>
<g><path style="opacity:1" fill="#fceedc" d="M 340.5,1026.5 C 342.167,1026.5 343.833,1026.5 345.5,1026.5C 345.938,1030.91 343.938,1032.57 339.5,1031.5C 339.629,1029.78 339.962,1028.12 340.5,1026.5 Z"/></g>
<g><path style="opacity:1" fill="#fbebd3" d="M 372.5,1027.5 C 374.167,1027.5 375.833,1027.5 377.5,1027.5C 377.616,1030.91 375.95,1032.24 372.5,1031.5C 372.5,1030.17 372.5,1028.83 372.5,1027.5 Z"/></g>
<g><path style="opacity:1" fill="#fcf0e0" d="M 481.5,1029.5 C 483.167,1029.5 484.833,1029.5 486.5,1029.5C 487.508,1034.67 485.675,1036.33 481,1034.5C 480.36,1032.73 480.527,1031.07 481.5,1029.5 Z"/></g>
<g><path style="opacity:1" fill="#fcf1e2" d="M 337.5,1073.5 C 339.465,1073.95 339.798,1074.95 338.5,1076.5C 337.614,1075.68 337.281,1074.68 337.5,1073.5 Z"/></g>
<g><path style="opacity:1" fill="#fcf4ec" d="M 362.5,1128.5 C 361.29,1128.93 360.29,1129.6 359.5,1130.5C 356.946,1131.39 354.279,1131.72 351.5,1131.5C 351.5,1130.83 351.167,1130.5 350.5,1130.5C 346.531,1124.73 341.531,1123.89 335.5,1128C 334.058,1128.38 333.058,1129.21 332.5,1130.5C 330.5,1130.5 328.5,1130.5 326.5,1130.5C 325.986,1128.63 325.32,1126.8 324.5,1125C 325.236,1122.86 326.236,1120.86 327.5,1119C 331.795,1118.09 336.128,1117.42 340.5,1117C 342.039,1114.13 344.205,1111.96 347,1110.5C 350.154,1111.16 352.987,1112.49 355.5,1114.5C 360.324,1111.61 365.491,1109.61 371,1108.5C 373.723,1109.21 374.723,1110.88 374,1113.5C 370.334,1118.66 366.501,1123.66 362.5,1128.5 Z"/></g>
<g><path style="opacity:1" fill="#d79d2b" d="M 350.5,1130.5 C 344.5,1130.5 338.5,1130.5 332.5,1130.5C 333.058,1129.21 334.058,1128.38 335.5,1128C 341.531,1123.89 346.531,1124.73 350.5,1130.5 Z"/></g>
<g><path style="opacity:1" fill="#c8a44c" d="M 516.5,1122.5 C 517.531,1124.96 518.198,1127.63 518.5,1130.5C 465.5,1130.5 412.5,1130.5 359.5,1130.5C 360.29,1129.6 361.29,1128.93 362.5,1128.5C 413.664,1129.5 464.997,1129.83 516.5,1129.5C 516.5,1127.17 516.5,1124.83 516.5,1122.5 Z"/></g>
<g><path style="opacity:1" fill="#176092" d="M 359.5,1130.5 C 412.5,1130.5 465.5,1130.5 518.5,1130.5C 521.466,1160.3 526.799,1189.63 534.5,1218.5C 533.5,1218.5 532.5,1218.5 531.5,1218.5C 522.691,1218.35 517.191,1214.01 515,1205.5C 515.557,1195.95 511.89,1188.61 504,1183.5C 499.333,1186.83 495.333,1190.83 492,1195.5C 492.179,1198.09 493.013,1200.59 494.5,1203C 493.756,1205.16 492.756,1207.16 491.5,1209C 491.78,1210.4 492.447,1211.56 493.5,1212.5C 496.055,1213.76 498.555,1215.09 501,1216.5C 500.776,1223.83 502.943,1230.33 507.5,1236C 508.167,1236.67 508.833,1236.67 509.5,1236C 510.785,1233.58 512.618,1231.74 515,1230.5C 522.182,1231.4 529.349,1232.4 536.5,1233.5C 538.304,1234.38 539.804,1235.71 541,1237.5C 553.349,1276.19 570.016,1312.86 591,1347.5C 591.692,1348.44 591.525,1349.1 590.5,1349.5C 585.926,1344.59 580.259,1342.75 573.5,1344C 569.049,1346.78 564.883,1349.95 561,1353.5C 560.333,1354.83 560.333,1356.17 561,1357.5C 565.133,1360.29 567.633,1364.13 568.5,1369C 565.808,1376.02 565.142,1383.19 566.5,1390.5C 568.92,1390.71 571.253,1390.37 573.5,1389.5C 575.186,1383.79 577.686,1378.46 581,1373.5C 584.656,1369.52 587.822,1365.19 590.5,1360.5C 592.029,1359.24 593.695,1358.24 595.5,1357.5C 601.656,1364.19 606.489,1371.86 610,1380.5C 612.479,1383.07 615.146,1385.4 618,1387.5C 625.944,1399.05 634.61,1410.05 644,1420.5C 644.49,1421.79 644.657,1423.13 644.5,1424.5C 642.629,1424.86 641.129,1425.86 640,1427.5C 638.059,1431.05 636.393,1434.71 635,1438.5C 633.333,1439.83 631.667,1441.17 630,1442.5C 629.313,1444.92 629.813,1447.09 631.5,1449C 630.737,1449.94 629.737,1450.44 628.5,1450.5C 626.199,1449.6 623.866,1449.44 621.5,1450C 620.483,1451.05 620.316,1452.22 621,1453.5C 623.72,1455.3 626.72,1456.3 630,1456.5C 635.805,1455.34 641.638,1454.84 647.5,1455C 650,1457.5 652.5,1460 655,1462.5C 656.753,1455.5 658.586,1448.5 660.5,1441.5C 675.276,1454.44 689.943,1467.6 704.5,1481C 718.686,1491.7 732.686,1502.53 746.5,1513.5C 728.164,1513.67 709.83,1513.5 691.5,1513C 687.083,1512.77 682.75,1512.27 678.5,1511.5C 675.324,1509.73 673.657,1510.73 673.5,1514.5C 662.167,1514.5 650.833,1514.5 639.5,1514.5C 637.167,1514.5 634.833,1514.5 632.5,1514.5C 632.737,1510.73 632.237,1507.06 631,1503.5C 626.289,1498.93 623.289,1499.93 622,1506.5C 621.289,1508.9 621.456,1511.23 622.5,1513.5C 622.167,1513.83 621.833,1514.17 621.5,1514.5C 619.322,1511.96 617.322,1511.96 615.5,1514.5C 610.5,1514.5 605.5,1514.5 600.5,1514.5C 596.875,1508.83 593.708,1502.83 591,1496.5C 591.369,1493.21 591.369,1489.88 591,1486.5C 583.6,1477.37 578.6,1467.03 576,1455.5C 571.726,1449.94 569.392,1443.61 569,1436.5C 566.006,1431.34 563.173,1426.17 560.5,1421C 556.338,1420.84 553.171,1422.67 551,1426.5C 548.905,1431.58 547.905,1436.91 548,1442.5C 547.252,1444.33 546.252,1446 545,1447.5C 544.333,1449.83 544.333,1452.17 545,1454.5C 546.207,1460.61 547.707,1466.61 549.5,1472.5C 548.022,1472.24 546.689,1472.57 545.5,1473.5C 549.477,1475.26 550.311,1477.93 548,1481.5C 546.185,1483.4 544.185,1485.07 542,1486.5C 541.247,1490.49 542.747,1493.33 546.5,1495C 551.569,1495.31 556.402,1496.48 561,1498.5C 561.499,1503.82 561.666,1509.16 561.5,1514.5C 550.833,1514.5 540.167,1514.5 529.5,1514.5C 528.406,1512.64 527.573,1510.64 527,1508.5C 521.576,1507.09 519.743,1509.09 521.5,1514.5C 515.5,1514.5 509.5,1514.5 503.5,1514.5C 503.799,1512.4 503.466,1510.4 502.5,1508.5C 499.418,1509.33 497.752,1511.33 497.5,1514.5C 495.167,1514.5 492.833,1514.5 490.5,1514.5C 493.202,1508.09 494.035,1501.42 493,1494.5C 491.401,1492.96 489.567,1492.46 487.5,1493C 486.089,1496 485.089,1499.16 484.5,1502.5C 478.598,1500.36 472.598,1498.52 466.5,1497C 463.556,1493.01 461.89,1488.51 461.5,1483.5C 460.167,1483.5 458.833,1483.5 457.5,1483.5C 457.461,1491.64 458.461,1499.64 460.5,1507.5C 460.225,1509.84 459.392,1509.84 458,1507.5C 376.605,1395.52 330.439,1270.18 319.5,1131.5C 330.167,1131.5 340.833,1131.5 351.5,1131.5C 354.279,1131.72 356.946,1131.39 359.5,1130.5 Z"/></g>
<g><path style="opacity:1" fill="#e8eaed" d="M 467.5,1141.5 C 473.384,1141.57 475.717,1144.57 474.5,1150.5C 465.709,1152.59 463.376,1149.59 467.5,1141.5 Z"/></g>
<g><path style="opacity:1" fill="#d8e0e6" d="M 382.5,1155.5 C 383.675,1155.28 384.675,1155.61 385.5,1156.5C 383.948,1157.8 382.948,1157.46 382.5,1155.5 Z"/></g>
<g><path style="opacity:1" fill="#f7f4f3" d="M 531.5,1218.5 C 533.19,1219.1 534.69,1220.1 536,1221.5C 537.023,1224.78 537.857,1228.12 538.5,1231.5C 538.253,1232.71 537.586,1233.38 536.5,1233.5C 529.349,1232.4 522.182,1231.4 515,1230.5C 512.618,1231.74 510.785,1233.58 509.5,1236C 508.833,1236.67 508.167,1236.67 507.5,1236C 502.943,1230.33 500.776,1223.83 501,1216.5C 498.555,1215.09 496.055,1213.76 493.5,1212.5C 492.447,1211.56 491.78,1210.4 491.5,1209C 492.756,1207.16 493.756,1205.16 494.5,1203C 493.013,1200.59 492.179,1198.09 492,1195.5C 495.333,1190.83 499.333,1186.83 504,1183.5C 511.89,1188.61 515.557,1195.95 515,1205.5C 517.191,1214.01 522.691,1218.35 531.5,1218.5 Z"/></g>
<g><path style="opacity:1" fill="#f5f3f2" d="M 394.5,1259.5 C 399.833,1259.5 405.167,1259.5 410.5,1259.5C 410.387,1262.05 411.054,1264.38 412.5,1266.5C 414.576,1268.29 416.743,1269.95 419,1271.5C 421.84,1279.19 426.173,1285.86 432,1291.5C 433.601,1294.09 433.767,1296.76 432.5,1299.5C 427.083,1296.04 421.583,1292.71 416,1289.5C 409.738,1281.23 402.738,1273.57 395,1266.5C 394.503,1264.19 394.337,1261.86 394.5,1259.5 Z"/></g>
<g><path style="opacity:1" fill="#e1e6e9" d="M 360.5,1269.5 C 366.21,1268.87 368.21,1271.2 366.5,1276.5C 359.743,1278.58 357.743,1276.25 360.5,1269.5 Z"/></g>
<g><path style="opacity:1" fill="#e9ebed" d="M 460.5,1286.5 C 462.792,1286.24 464.959,1286.58 467,1287.5C 468.639,1295.09 467.139,1301.92 462.5,1308C 460.866,1308.49 459.199,1308.66 457.5,1308.5C 457.335,1305.15 457.502,1301.82 458,1298.5C 459.957,1297.11 461.79,1295.61 463.5,1294C 461.372,1292.01 460.372,1289.51 460.5,1286.5 Z"/></g>
<g><path style="opacity:1" fill="#f4f3f2" d="M 474.5,1296.5 C 483.104,1296.48 491.604,1297.15 500,1298.5C 500.486,1304.81 502.153,1310.81 505,1316.5C 505.53,1323.93 505.196,1331.26 504,1338.5C 510.349,1345.37 509.849,1351.71 502.5,1357.5C 501.333,1359.83 500.167,1362.17 499,1364.5C 497.506,1365.75 496.006,1365.75 494.5,1364.5C 491.436,1358.88 492.27,1353.88 497,1349.5C 497.494,1347.87 497.66,1346.2 497.5,1344.5C 494.833,1344.5 492.167,1344.5 489.5,1344.5C 489.406,1335.98 485.906,1329.31 479,1324.5C 478.505,1322.53 478.338,1320.53 478.5,1318.5C 483.119,1317.69 487.786,1317.35 492.5,1317.5C 492.503,1308.34 487.837,1304.18 478.5,1305C 476.218,1302.6 474.884,1299.77 474.5,1296.5 Z"/></g>
<g><path style="opacity:1" fill="#f3f1f1" d="M 554.5,1310.5 C 556.527,1310.34 558.527,1310.5 560.5,1311C 563.567,1314.3 565.733,1318.13 567,1322.5C 569,1323.83 571,1325.17 573,1326.5C 573.483,1327.45 573.649,1328.45 573.5,1329.5C 569.516,1329.93 565.516,1330.26 561.5,1330.5C 549.718,1330.6 546.218,1325.27 551,1314.5C 552.376,1313.29 553.542,1311.96 554.5,1310.5 Z"/></g>
<g><path style="opacity:1" fill="#9ab2bb" d="M 1703.5,1322.5 C 1711.34,1321.18 1719.34,1321.18 1727.5,1322.5C 1727.38,1323.11 1727.04,1323.44 1726.5,1323.5C 1719.02,1322.51 1711.35,1322.17 1703.5,1322.5 Z"/></g>
<g><path style="opacity:1" fill="#186092" d="M 1703.5,1322.5 C 1711.35,1322.17 1719.02,1322.51 1726.5,1323.5C 1725.3,1327.92 1723.8,1332.26 1722,1336.5C 1719.72,1337.12 1717.56,1337.78 1715.5,1338.5C 1705.92,1340.63 1702.09,1346.63 1704,1356.5C 1705.7,1359.02 1707.53,1361.35 1709.5,1363.5C 1697.41,1395.34 1682.41,1425.67 1664.5,1454.5C 1661.15,1454.67 1657.82,1454.5 1654.5,1454C 1643.5,1450.33 1632.5,1446.67 1621.5,1443C 1609.08,1441.54 1596.75,1439.54 1584.5,1437C 1582.69,1434.6 1580.36,1432.93 1577.5,1432C 1561.96,1426.09 1545.96,1422.93 1529.5,1422.5C 1529.98,1423.48 1530.64,1424.31 1531.5,1425C 1544.94,1429.78 1558.61,1433.78 1572.5,1437C 1577.1,1439.27 1581.43,1441.94 1585.5,1445C 1587.91,1446.71 1590.58,1447.54 1593.5,1447.5C 1593.67,1446.18 1593.34,1445.01 1592.5,1444C 1594.5,1443.33 1596.5,1443.33 1598.5,1444C 1614.24,1448.08 1629.91,1452.41 1645.5,1457C 1650.1,1458.29 1654.76,1459.12 1659.5,1459.5C 1649.32,1478.85 1637.32,1497.02 1623.5,1514C 1621.19,1514.5 1618.86,1514.66 1616.5,1514.5C 1615.65,1506.99 1611.65,1502.32 1604.5,1500.5C 1604.34,1501.87 1604.51,1503.21 1605,1504.5C 1607.43,1507.69 1609.59,1511.02 1611.5,1514.5C 1608.17,1514.5 1604.83,1514.5 1601.5,1514.5C 1515.26,1514.49 1428.93,1514.49 1342.5,1514.5C 1413.56,1464.77 1470.23,1402.11 1512.5,1326.5C 1576.14,1324 1639.81,1322.67 1703.5,1322.5 Z"/></g>
<g><path style="opacity:1" fill="#f6f3f2" d="M 1715.5,1338.5 C 1717.29,1338.21 1718.95,1338.55 1720.5,1339.5C 1717.96,1347.28 1715.13,1354.95 1712,1362.5C 1711.33,1363.25 1710.5,1363.59 1709.5,1363.5C 1707.53,1361.35 1705.7,1359.02 1704,1356.5C 1702.09,1346.63 1705.92,1340.63 1715.5,1338.5 Z"/></g>
<g><path style="opacity:1" fill="#f7f4f2" d="M 590.5,1349.5 C 593.167,1351.49 594.834,1354.16 595.5,1357.5C 593.695,1358.24 592.029,1359.24 590.5,1360.5C 587.822,1365.19 584.656,1369.52 581,1373.5C 577.686,1378.46 575.186,1383.79 573.5,1389.5C 571.253,1390.37 568.92,1390.71 566.5,1390.5C 565.142,1383.19 565.808,1376.02 568.5,1369C 567.633,1364.13 565.133,1360.29 561,1357.5C 560.333,1356.17 560.333,1354.83 561,1353.5C 564.883,1349.95 569.049,1346.78 573.5,1344C 580.259,1342.75 585.926,1344.59 590.5,1349.5 Z"/></g>
<g><path style="opacity:1" fill="#cdd8e1" d="M 1611.5,1344.5 C 1615.44,1344.64 1618.77,1346.14 1621.5,1349C 1618.22,1349.74 1615.22,1349.08 1612.5,1347C 1611.75,1346.33 1611.41,1345.5 1611.5,1344.5 Z"/></g>
<g><path style="opacity:1" fill="#f0eff0" d="M 548.5,1351.5 C 551.982,1351.07 554.315,1352.4 555.5,1355.5C 553.771,1359.29 551.771,1362.96 549.5,1366.5C 547.057,1367.11 544.557,1367.45 542,1367.5C 531.795,1368.03 529.962,1364.53 536.5,1357C 539.101,1356.08 541.768,1355.41 544.5,1355C 546.324,1354.34 547.657,1353.17 548.5,1351.5 Z"/></g>
<g><path style="opacity:1" fill="#e9eced" d="M 1630.5,1354.5 C 1633.26,1354.8 1635.76,1355.8 1638,1357.5C 1637.66,1362.77 1637.49,1368.11 1637.5,1373.5C 1635.83,1373.5 1634.17,1373.5 1632.5,1373.5C 1631.45,1368.65 1631.45,1363.81 1632.5,1359C 1631.59,1357.59 1630.92,1356.09 1630.5,1354.5 Z"/></g>
<g><path style="opacity:1" fill="#f5f4f3" d="M 456.5,1358.5 C 458.199,1358.34 459.866,1358.51 461.5,1359C 464.333,1363.17 467.833,1366.67 472,1369.5C 471.268,1378.82 470.268,1388.15 469,1397.5C 468.626,1398.42 468.126,1399.25 467.5,1400C 461.74,1400.95 456.074,1402.29 450.5,1404C 448.167,1404.67 445.833,1404.67 443.5,1404C 442.572,1403.61 441.905,1402.95 441.5,1402C 443.533,1398.1 445.7,1394.27 448,1390.5C 449.668,1381.5 451.334,1372.5 453,1363.5C 453.997,1361.68 455.164,1360.01 456.5,1358.5 Z"/></g>
<g><path style="opacity:1" fill="#eaeced" d="M 1513.5,1363.5 C 1515.41,1363.57 1516.58,1364.57 1517,1366.5C 1517.77,1371.9 1517.44,1377.24 1516,1382.5C 1515.29,1383.97 1514.12,1384.64 1512.5,1384.5C 1512.77,1377.5 1513.11,1370.5 1513.5,1363.5 Z"/></g>
<g><path style="opacity:1" fill="#d9e0e5" d="M 491.5,1380.5 C 492.5,1380.5 493.5,1380.5 494.5,1380.5C 494.5,1381.5 494.5,1382.5 494.5,1383.5C 493.5,1383.5 492.5,1383.5 491.5,1383.5C 491.5,1382.5 491.5,1381.5 491.5,1380.5 Z"/></g>
<g><path style="opacity:1" fill="#e3e7ea" d="M 1623.5,1391.5 C 1626.25,1396.7 1625.25,1401.53 1620.5,1406C 1619.21,1406.49 1617.87,1406.66 1616.5,1406.5C 1616.34,1405.13 1616.51,1403.79 1617,1402.5C 1619.69,1399.11 1621.86,1395.44 1623.5,1391.5 Z"/></g>
<g><path style="opacity:1" fill="#dbe1e6" d="M 1581.5,1413.5 C 1588.79,1414.13 1595.96,1415.46 1603,1417.5C 1608.03,1416.87 1612.87,1415.53 1617.5,1413.5C 1618.17,1413.83 1618.83,1414.17 1619.5,1414.5C 1617.58,1416.32 1615.25,1417.48 1612.5,1418C 1608.72,1419.07 1604.88,1419.9 1601,1420.5C 1595.67,1418.59 1590.17,1417.42 1584.5,1417C 1582.57,1416.58 1581.57,1415.41 1581.5,1413.5 Z"/></g>
<g><path style="opacity:1" fill="#faf5f3" d="M 600.5,1514.5 C 598.994,1523.18 597.16,1531.85 595,1540.5C 590.495,1544.7 586.329,1544.37 582.5,1539.5C 576.253,1544.44 572.087,1543.1 570,1535.5C 569.24,1531.18 568.573,1526.85 568,1522.5C 566.629,1519.73 564.796,1517.4 562.5,1515.5C 562.5,1514.83 562.167,1514.5 561.5,1514.5C 561.666,1509.16 561.499,1503.82 561,1498.5C 556.402,1496.48 551.569,1495.31 546.5,1495C 542.747,1493.33 541.247,1490.49 542,1486.5C 544.185,1485.07 546.185,1483.4 548,1481.5C 550.311,1477.93 549.477,1475.26 545.5,1473.5C 546.689,1472.57 548.022,1472.24 549.5,1472.5C 547.707,1466.61 546.207,1460.61 545,1454.5C 544.333,1452.17 544.333,1449.83 545,1447.5C 546.252,1446 547.252,1444.33 548,1442.5C 547.905,1436.91 548.905,1431.58 551,1426.5C 553.171,1422.67 556.338,1420.84 560.5,1421C 563.173,1426.17 566.006,1431.34 569,1436.5C 569.392,1443.61 571.726,1449.94 576,1455.5C 578.6,1467.03 583.6,1477.37 591,1486.5C 591.369,1489.88 591.369,1493.21 591,1496.5C 593.708,1502.83 596.875,1508.83 600.5,1514.5 Z"/></g>
<g><path style="opacity:1" fill="#e9eaec" d="M 1664.5,1454.5 C 1663.17,1456.5 1661.5,1458.17 1659.5,1459.5C 1654.76,1459.12 1650.1,1458.29 1645.5,1457C 1629.91,1452.41 1614.24,1448.08 1598.5,1444C 1596.5,1443.33 1594.5,1443.33 1592.5,1444C 1593.34,1445.01 1593.67,1446.18 1593.5,1447.5C 1590.58,1447.54 1587.91,1446.71 1585.5,1445C 1581.43,1441.94 1577.1,1439.27 1572.5,1437C 1558.61,1433.78 1544.94,1429.78 1531.5,1425C 1530.64,1424.31 1529.98,1423.48 1529.5,1422.5C 1545.96,1422.93 1561.96,1426.09 1577.5,1432C 1580.36,1432.93 1582.69,1434.6 1584.5,1437C 1596.75,1439.54 1609.08,1441.54 1621.5,1443C 1632.5,1446.67 1643.5,1450.33 1654.5,1454C 1657.82,1454.5 1661.15,1454.67 1664.5,1454.5 Z"/></g>
<g><path style="opacity:1" fill="#f6f4f2" d="M 644.5,1424.5 C 651.872,1428.24 657.205,1433.91 660.5,1441.5C 658.586,1448.5 656.753,1455.5 655,1462.5C 652.5,1460 650,1457.5 647.5,1455C 641.638,1454.84 635.805,1455.34 630,1456.5C 626.72,1456.3 623.72,1455.3 621,1453.5C 620.316,1452.22 620.483,1451.05 621.5,1450C 623.866,1449.44 626.199,1449.6 628.5,1450.5C 629.737,1450.44 630.737,1449.94 631.5,1449C 629.813,1447.09 629.313,1444.92 630,1442.5C 631.667,1441.17 633.333,1439.83 635,1438.5C 636.393,1434.71 638.059,1431.05 640,1427.5C 641.129,1425.86 642.629,1424.86 644.5,1424.5 Z"/></g>
<g><path style="opacity:1" fill="#e2e7ea" d="M 1632.5,1427.5 C 1635.83,1427.5 1637.5,1429.17 1637.5,1432.5C 1634.17,1432.5 1632.5,1430.83 1632.5,1427.5 Z"/></g>
<g><path style="opacity:1" fill="#e4e8eb" d="M 1519.5,1451.5 C 1521.29,1451.21 1522.95,1451.55 1524.5,1452.5C 1525.23,1455.11 1525.73,1457.78 1526,1460.5C 1527.21,1461.07 1528.37,1461.74 1529.5,1462.5C 1525.82,1465.4 1522.65,1464.73 1520,1460.5C 1519.5,1457.52 1519.34,1454.52 1519.5,1451.5 Z"/></g>
<g><path style="opacity:1" fill="#c3d2dc" d="M 1508.5,1463.5 C 1510.26,1462.29 1511.93,1462.62 1513.5,1464.5C 1511.6,1465.65 1509.94,1465.32 1508.5,1463.5 Z"/></g>
<g><path style="opacity:1" fill="#e2e7ea" d="M 1605.5,1465.5 C 1606.5,1465.5 1607.5,1465.5 1608.5,1465.5C 1608.5,1466.5 1608.5,1467.5 1608.5,1468.5C 1607.5,1468.5 1606.5,1468.5 1605.5,1468.5C 1605.5,1467.5 1605.5,1466.5 1605.5,1465.5 Z"/></g>
<g><path style="opacity:1" fill="#e2e6ea" d="M 1471.5,1468.5 C 1471.74,1467.9 1472.24,1467.57 1473,1467.5C 1477.58,1468.6 1482.08,1469.94 1486.5,1471.5C 1480.81,1473.44 1475.81,1472.44 1471.5,1468.5 Z"/></g>
<g><path style="opacity:1" fill="#d8e0e5" d="M 1640.5,1468.5 C 1641.68,1468.28 1642.68,1468.61 1643.5,1469.5C 1641.95,1470.8 1640.95,1470.46 1640.5,1468.5 Z"/></g>
<g><path style="opacity:1" fill="#d5dde4" d="M 1545.5,1481.5 C 1546.5,1481.5 1547.5,1481.5 1548.5,1481.5C 1548.5,1482.83 1548.5,1484.17 1548.5,1485.5C 1547.5,1485.5 1546.5,1485.5 1545.5,1485.5C 1545.5,1484.17 1545.5,1482.83 1545.5,1481.5 Z"/></g>
<g><path style="opacity:1" fill="#f7f2f1" d="M 490.5,1514.5 C 490.5,1514.83 490.5,1515.17 490.5,1515.5C 490.755,1518.02 491.589,1520.35 493,1522.5C 493.667,1524.5 493.667,1526.5 493,1528.5C 490.971,1531.03 489.138,1533.7 487.5,1536.5C 486.311,1537.43 484.978,1537.76 483.5,1537.5C 482.203,1535.63 481.203,1533.63 480.5,1531.5C 478.189,1528.34 476.022,1525 474,1521.5C 472.22,1520.36 470.386,1519.36 468.5,1518.5C 464.29,1515.96 461.624,1512.29 460.5,1507.5C 458.461,1499.64 457.461,1491.64 457.5,1483.5C 458.833,1483.5 460.167,1483.5 461.5,1483.5C 461.89,1488.51 463.556,1493.01 466.5,1497C 472.598,1498.52 478.598,1500.36 484.5,1502.5C 485.089,1499.16 486.089,1496 487.5,1493C 489.567,1492.46 491.401,1492.96 493,1494.5C 494.035,1501.42 493.202,1508.09 490.5,1514.5 Z"/></g>
<g><path style="opacity:1" fill="#648daf" d="M 559.5,1484.5 C 562.166,1484.07 563.333,1485.07 563,1487.5C 559.403,1489.07 558.237,1488.07 559.5,1484.5 Z"/></g>
<g><path style="opacity:1" fill="#e7e8ea" d="M 1616.5,1514.5 C 1615.83,1514.5 1615.5,1514.83 1615.5,1515.5C 1614.5,1515.5 1613.5,1515.5 1612.5,1515.5C 1612.5,1514.83 1612.17,1514.5 1611.5,1514.5C 1609.59,1511.02 1607.43,1507.69 1605,1504.5C 1604.51,1503.21 1604.34,1501.87 1604.5,1500.5C 1611.65,1502.32 1615.65,1506.99 1616.5,1514.5 Z"/></g>
<g><path style="opacity:1" fill="#f6edea" d="M 639.5,1514.5 C 639.5,1515.5 639.5,1516.5 639.5,1517.5C 637.135,1519.53 634.469,1521.19 631.5,1522.5C 630.993,1527.64 629.993,1532.64 628.5,1537.5C 630.074,1538.63 631.741,1538.8 633.5,1538C 636.11,1536.52 638.777,1535.35 641.5,1534.5C 641.898,1538.82 639.898,1541.32 635.5,1542C 630.905,1543.39 626.239,1543.73 621.5,1543C 621.014,1539.57 619.847,1536.41 618,1533.5C 617.447,1530.64 617.614,1527.81 618.5,1525C 617.591,1521.44 616.591,1517.94 615.5,1514.5C 617.322,1511.96 619.322,1511.96 621.5,1514.5C 621.833,1514.17 622.167,1513.83 622.5,1513.5C 621.456,1511.23 621.289,1508.9 622,1506.5C 623.289,1499.93 626.289,1498.93 631,1503.5C 632.237,1507.06 632.737,1510.73 632.5,1514.5C 634.833,1514.5 637.167,1514.5 639.5,1514.5 Z"/></g>
<g><path style="opacity:1" fill="#dae1e6" d="M 687.5,1504.5 C 688.586,1504.62 689.253,1505.29 689.5,1506.5C 689.167,1507.17 688.833,1507.83 688.5,1508.5C 687.571,1507.31 687.238,1505.98 687.5,1504.5 Z"/></g>
<g><path style="opacity:1" fill="#f6ece9" d="M 529.5,1514.5 C 529.5,1516.17 529.5,1517.83 529.5,1519.5C 529.824,1525.35 527.157,1527.85 521.5,1527C 520.903,1525.94 520.57,1524.77 520.5,1523.5C 521.655,1520.99 522.322,1518.32 522.5,1515.5C 522.5,1514.83 522.167,1514.5 521.5,1514.5C 519.743,1509.09 521.576,1507.09 527,1508.5C 527.573,1510.64 528.406,1512.64 529.5,1514.5 Z"/></g>
<g><path style="opacity:1" fill="#4d7ba2" d="M 475.5,1509.5 C 476.649,1509.79 477.316,1510.62 477.5,1512C 477.333,1512.83 477.167,1513.67 477,1514.5C 475.731,1513.1 475.231,1511.43 475.5,1509.5 Z"/></g>
<g><path style="opacity:1" fill="#d1bcbe" d="M 521.5,1514.5 C 522.167,1514.5 522.5,1514.83 522.5,1515.5C 515.825,1515.33 509.158,1515.5 502.5,1516C 501.403,1518.06 500.07,1518.56 498.5,1517.5C 498.737,1516.21 498.404,1515.21 497.5,1514.5C 497.752,1511.33 499.418,1509.33 502.5,1508.5C 503.466,1510.4 503.799,1512.4 503.5,1514.5C 509.5,1514.5 515.5,1514.5 521.5,1514.5 Z"/></g>
<g><path style="opacity:1" fill="#f8e9e6" d="M 678.5,1511.5 C 678.5,1512.83 678.5,1514.17 678.5,1515.5C 678.173,1521.79 676.673,1527.79 674,1533.5C 672.301,1534.41 670.467,1534.74 668.5,1534.5C 667.452,1531.21 666.952,1527.88 667,1524.5C 668.896,1522.47 671.063,1520.8 673.5,1519.5C 674.429,1518.31 674.762,1516.98 674.5,1515.5C 674.5,1514.83 674.167,1514.5 673.5,1514.5C 673.657,1510.73 675.324,1509.73 678.5,1511.5 Z"/></g>
<g><path style="opacity:1" fill="#5b708c" d="M 678.5,1511.5 C 682.75,1512.27 687.083,1512.77 691.5,1513C 709.83,1513.5 728.164,1513.67 746.5,1513.5C 747.791,1513.26 748.791,1513.6 749.5,1514.5C 725.759,1514.18 702.092,1514.51 678.5,1515.5C 678.5,1514.17 678.5,1512.83 678.5,1511.5 Z"/></g>
<g><path style="opacity:1" fill="#cba3a4" d="M 1601.5,1514.5 C 1601.33,1515.49 1601.66,1516.16 1602.5,1516.5C 1605.2,1518.53 1605.04,1520.2 1602,1521.5C 1599.93,1520.22 1598.43,1518.39 1597.5,1516C 1511.83,1515.5 1426.17,1515.33 1340.5,1515.5C 1340.84,1514.66 1341.51,1514.33 1342.5,1514.5C 1428.93,1514.49 1515.26,1514.49 1601.5,1514.5 Z"/></g>
<g><path style="opacity:1" fill="#ab676a" d="M 490.5,1515.5 C 490.5,1515.17 490.5,1514.83 490.5,1514.5C 492.833,1514.5 495.167,1514.5 497.5,1514.5C 498.404,1515.21 498.737,1516.21 498.5,1517.5C 496.2,1515.8 493.533,1515.13 490.5,1515.5 Z"/></g>
<g><path style="opacity:1" fill="#a76569" d="M 529.5,1514.5 C 540.167,1514.5 550.833,1514.5 561.5,1514.5C 562.167,1514.5 562.5,1514.83 562.5,1515.5C 551.833,1515.5 541.167,1515.5 530.5,1515.5C 530.768,1517.1 530.434,1518.43 529.5,1519.5C 529.5,1517.83 529.5,1516.17 529.5,1514.5 Z"/></g>
<g><path style="opacity:1" fill="#a7666a" d="M 1601.5,1514.5 C 1604.83,1514.5 1608.17,1514.5 1611.5,1514.5C 1612.17,1514.5 1612.5,1514.83 1612.5,1515.5C 1608.96,1515.19 1605.62,1515.52 1602.5,1516.5C 1601.66,1516.16 1601.33,1515.49 1601.5,1514.5 Z"/></g>
<g><path style="opacity:1" fill="#c3221a" d="M 600.5,1514.5 C 605.5,1514.5 610.5,1514.5 615.5,1514.5C 616.591,1517.94 617.591,1521.44 618.5,1525C 617.614,1527.81 617.447,1530.64 618,1533.5C 619.847,1536.41 621.014,1539.57 621.5,1543C 626.239,1543.73 630.905,1543.39 635.5,1542C 639.898,1541.32 641.898,1538.82 641.5,1534.5C 638.777,1535.35 636.11,1536.52 633.5,1538C 631.741,1538.8 630.074,1538.63 628.5,1537.5C 629.993,1532.64 630.993,1527.64 631.5,1522.5C 634.469,1521.19 637.135,1519.53 639.5,1517.5C 650.914,1515.55 662.581,1514.89 674.5,1515.5C 674.762,1516.98 674.429,1518.31 673.5,1519.5C 671.063,1520.8 668.896,1522.47 667,1524.5C 666.952,1527.88 667.452,1531.21 668.5,1534.5C 670.467,1534.74 672.301,1534.41 674,1533.5C 676.673,1527.79 678.173,1521.79 678.5,1515.5C 702.092,1514.51 725.759,1514.18 749.5,1514.5C 769.204,1527.02 789.204,1539.02 809.5,1550.5C 805.605,1550.86 804.605,1552.86 806.5,1556.5C 808.323,1557.75 810.323,1558.41 812.5,1558.5C 812.453,1561.57 813.619,1563.91 816,1565.5C 817.261,1565.24 818.261,1564.57 819,1563.5C 820.705,1561.42 821.872,1559.09 822.5,1556.5C 867.425,1576.2 914.092,1590.36 962.5,1599C 977.415,1601.58 992.415,1603.42 1007.5,1604.5C 1018.51,1606.34 1029.51,1608.84 1040.5,1612C 1043.82,1612.5 1047.15,1612.67 1050.5,1612.5C 1050.05,1608.43 1047.72,1606.43 1043.5,1606.5C 1049.2,1605.7 1054.86,1604.7 1060.5,1603.5C 1162.29,1600.46 1255.62,1571.12 1340.5,1515.5C 1426.17,1515.33 1511.83,1515.5 1597.5,1516C 1598.43,1518.39 1599.93,1520.22 1602,1521.5C 1605.04,1520.2 1605.2,1518.53 1602.5,1516.5C 1605.62,1515.52 1608.96,1515.19 1612.5,1515.5C 1613.5,1515.5 1614.5,1515.5 1615.5,1515.5C 1617.86,1515.34 1620.19,1515.5 1622.5,1516C 1591.18,1557.49 1555.52,1594.99 1515.5,1628.5C 1510.83,1621.5 1504.83,1615.84 1497.5,1611.5C 1496.28,1613.9 1496.44,1616.23 1498,1618.5C 1501.52,1621.27 1504.86,1624.27 1508,1627.5C 1508.67,1628.5 1508.67,1629.5 1508,1630.5C 1505.74,1627.88 1503.58,1627.88 1501.5,1630.5C 1503.19,1632.52 1504.86,1634.52 1506.5,1636.5C 1464.06,1671.39 1418.23,1701.39 1369,1726.5C 1368.77,1725.26 1368.27,1724.26 1367.5,1723.5C 1366.69,1722.16 1365.52,1721.16 1364,1720.5C 1359.31,1723.59 1354.48,1726.26 1349.5,1728.5C 1348.44,1731.22 1347.44,1734.05 1346.5,1737C 1310.69,1753.94 1273.53,1767.1 1235,1776.5C 1232.5,1776.08 1230,1775.75 1227.5,1775.5C 1227.5,1777.17 1227.5,1778.83 1227.5,1780.5C 1145.91,1800.35 1063.24,1807.02 979.5,1800.5C 980.247,1794.93 977.913,1793.1 972.5,1795C 969.317,1797.18 965.817,1798.34 962,1798.5C 859.832,1787.5 764.666,1755.83 676.5,1703.5C 677.668,1701.19 679.002,1698.85 680.5,1696.5C 679.18,1692.89 678.013,1689.22 677,1685.5C 672.683,1682.6 670.516,1683.93 670.5,1689.5C 668.365,1689.15 667.032,1689.98 666.5,1692C 667.8,1694.3 669.467,1696.3 671.5,1698C 671.43,1698.76 671.097,1699.26 670.5,1699.5C 666.975,1698.24 663.975,1696.24 661.5,1693.5C 661.663,1691.14 661.497,1688.81 661,1686.5C 658.341,1684.94 657.174,1682.61 657.5,1679.5C 667.314,1682.15 668.814,1679.49 662,1671.5C 661.667,1668.17 661.333,1664.83 661,1661.5C 660.632,1660.09 659.799,1659.09 658.5,1658.5C 655.906,1659.59 653.739,1661.26 652,1663.5C 651.501,1668.49 651.334,1673.49 651.5,1678.5C 647.352,1678.17 645.685,1675.83 646.5,1671.5C 643.036,1673.09 640.036,1672.59 637.5,1670C 633.889,1668.75 632.389,1669.91 633,1673.5C 634.376,1674.71 635.542,1676.04 636.5,1677.5C 628.992,1673.67 621.992,1669 615.5,1663.5C 619.365,1660.66 620.365,1657 618.5,1652.5C 617.277,1651.39 615.944,1651.22 614.5,1652C 613.024,1654.64 611.024,1656.81 608.5,1658.5C 570.439,1629.95 535.272,1597.95 503,1562.5C 503.203,1560.06 504.037,1557.73 505.5,1555.5C 505,1555.17 504.5,1554.83 504,1554.5C 502.3,1555.93 500.467,1556.76 498.5,1557C 492.494,1551.18 487.494,1544.68 483.5,1537.5C 484.978,1537.76 486.311,1537.43 487.5,1536.5C 489.138,1533.7 490.971,1531.03 493,1528.5C 493.667,1526.5 493.667,1524.5 493,1522.5C 491.589,1520.35 490.755,1518.02 490.5,1515.5C 493.533,1515.13 496.2,1515.8 498.5,1517.5C 500.07,1518.56 501.403,1518.06 502.5,1516C 509.158,1515.5 515.825,1515.33 522.5,1515.5C 522.322,1518.32 521.655,1520.99 520.5,1523.5C 520.57,1524.77 520.903,1525.94 521.5,1527C 527.157,1527.85 529.824,1525.35 529.5,1519.5C 530.434,1518.43 530.768,1517.1 530.5,1515.5C 541.167,1515.5 551.833,1515.5 562.5,1515.5C 564.796,1517.4 566.629,1519.73 568,1522.5C 568.573,1526.85 569.24,1531.18 570,1535.5C 572.087,1543.1 576.253,1544.44 582.5,1539.5C 586.329,1544.37 590.495,1544.7 595,1540.5C 597.16,1531.85 598.994,1523.18 600.5,1514.5 Z"/></g>
<g><path style="opacity:1" fill="#a46368" d="M 639.5,1514.5 C 650.833,1514.5 662.167,1514.5 673.5,1514.5C 674.167,1514.5 674.5,1514.83 674.5,1515.5C 662.581,1514.89 650.914,1515.55 639.5,1517.5C 639.5,1516.5 639.5,1515.5 639.5,1514.5 Z"/></g>
<g><path style="opacity:1" fill="#f9e4e0" d="M 537.5,1517.5 C 541.548,1517.72 543.215,1519.89 542.5,1524C 543.029,1527.34 541.863,1529.84 539,1531.5C 538.055,1531.09 537.388,1530.43 537,1529.5C 536.306,1525.45 536.473,1521.45 537.5,1517.5 Z"/></g>
<g><path style="opacity:1" fill="#f8deda" d="M 648.5,1517.5 C 652.5,1516.83 654.167,1518.5 653.5,1522.5C 649.5,1523.17 647.833,1521.5 648.5,1517.5 Z"/></g>
<g><path style="opacity:1" fill="#f7d8d4" d="M 548.5,1518.5 C 552.991,1519.22 554.658,1521.89 553.5,1526.5C 552.022,1526.76 550.689,1526.43 549.5,1525.5C 548.626,1523.25 548.292,1520.92 548.5,1518.5 Z"/></g>
<g><path style="opacity:1" fill="#cb483a" d="M 468.5,1518.5 C 470.386,1519.36 472.22,1520.36 474,1521.5C 476.022,1525 478.189,1528.34 480.5,1531.5C 480.89,1536.42 479.723,1536.76 477,1532.5C 473.833,1528 470.667,1523.5 467.5,1519C 467.728,1518.6 468.062,1518.43 468.5,1518.5 Z"/></g>
<g><path style="opacity:1" fill="#f9e1dd" d="M 635.5,1524.5 C 639.908,1524.06 641.575,1526.06 640.5,1530.5C 635.074,1531.42 633.407,1529.42 635.5,1524.5 Z"/></g>
<g><path style="opacity:1" fill="#f5d2cf" d="M 1504.5,1528.5 C 1509.4,1529.88 1513.4,1532.71 1516.5,1537C 1510.98,1536.4 1506.98,1533.57 1504.5,1528.5 Z"/></g>
<g><path style="opacity:1" fill="#f9e1dc" d="M 745.5,1529.5 C 747.144,1529.29 748.644,1529.62 750,1530.5C 751.252,1533.01 751.752,1535.68 751.5,1538.5C 746.813,1537.49 744.813,1534.49 745.5,1529.5 Z"/></g>
<g><path style="opacity:1" fill="#f6d4cf" d="M 526.5,1534.5 C 531.323,1534.33 533.323,1536.66 532.5,1541.5C 528.362,1541.03 526.362,1538.69 526.5,1534.5 Z"/></g>
<g><path style="opacity:1" fill="#f9e3de" d="M 605.5,1541.5 C 606.822,1541.33 607.989,1541.66 609,1542.5C 609.667,1546.83 609.667,1551.17 609,1555.5C 606.847,1557.44 604.347,1557.94 601.5,1557C 598.716,1554.89 596.716,1552.22 595.5,1549C 598.2,1545.84 601.033,1546.01 604,1549.5C 604.567,1546.83 605.067,1544.17 605.5,1541.5 Z"/></g>
<g><path style="opacity:1" fill="#f8dcd7" d="M 580.5,1545.5 C 582.144,1545.29 583.644,1545.62 585,1546.5C 585.977,1548.74 586.477,1551.07 586.5,1553.5C 580.995,1553.15 578.995,1550.49 580.5,1545.5 Z"/></g>
<g><path style="opacity:1" fill="#f4cdc9" d="M 552.5,1547.5 C 553.586,1547.62 554.253,1548.29 554.5,1549.5C 554.167,1550.17 553.833,1550.83 553.5,1551.5C 552.571,1550.31 552.238,1548.98 552.5,1547.5 Z"/></g>
<g><path style="opacity:1" fill="#f8dbd6" d="M 529.5,1550.5 C 534.194,1550.36 536.361,1552.7 536,1557.5C 536.667,1562.5 536.667,1567.5 536,1572.5C 534.989,1573.34 533.822,1573.67 532.5,1573.5C 532.666,1569.49 532.499,1565.49 532,1561.5C 530.69,1557.93 529.857,1554.26 529.5,1550.5 Z"/></g>
<g><path style="opacity:1" fill="#f3c2bd" d="M 570.5,1549.5 C 574.5,1548.83 576.167,1550.5 575.5,1554.5C 571.5,1555.17 569.833,1553.5 570.5,1549.5 Z"/></g>
<g><path style="opacity:1" fill="#fbece8" d="M 809.5,1550.5 C 814.443,1551.36 818.776,1553.36 822.5,1556.5C 821.872,1559.09 820.705,1561.42 819,1563.5C 818.261,1564.57 817.261,1565.24 816,1565.5C 813.619,1563.91 812.453,1561.57 812.5,1558.5C 810.323,1558.41 808.323,1557.75 806.5,1556.5C 804.605,1552.86 805.605,1550.86 809.5,1550.5 Z"/></g>
<g><path style="opacity:1" fill="#f4cdc8" d="M 1524.5,1552.5 C 1527.95,1551.76 1529.62,1553.09 1529.5,1556.5C 1526.05,1557.24 1524.38,1555.91 1524.5,1552.5 Z"/></g>
<g><path style="opacity:1" fill="#f6d7d2" d="M 1294.5,1555.5 C 1295.83,1555.5 1297.17,1555.5 1298.5,1555.5C 1298.64,1559.69 1296.64,1562.03 1292.5,1562.5C 1292.39,1559.92 1293.06,1557.59 1294.5,1555.5 Z"/></g>
<g><path style="opacity:1" fill="#f6d6d3" d="M 1310.5,1555.5 C 1312.46,1555.95 1312.8,1556.95 1311.5,1558.5C 1310.61,1557.68 1310.28,1556.68 1310.5,1555.5 Z"/></g>
<g><path style="opacity:1" fill="#ecaaa5" d="M 642.5,1556.5 C 645.861,1557.2 646.194,1558.54 643.5,1560.5C 641.358,1559.56 641.024,1558.23 642.5,1556.5 Z"/></g>
<g><path style="opacity:1" fill="#fbece8" d="M 692.5,1558.5 C 700.225,1558.86 702.558,1562.69 699.5,1570C 690.467,1570.44 688.133,1566.61 692.5,1558.5 Z"/></g>
<g><path style="opacity:1" fill="#f5ccc7" d="M 797.5,1561.5 C 800.247,1561.19 802.914,1561.52 805.5,1562.5C 803.464,1564.98 800.798,1565.98 797.5,1565.5C 797.5,1564.17 797.5,1562.83 797.5,1561.5 Z"/></g>
<g><path style="opacity:1" fill="#f7d7d2" d="M 1468.5,1561.5 C 1473.98,1569.1 1479.48,1576.77 1485,1584.5C 1485.69,1585.33 1485.52,1586 1484.5,1586.5C 1480.86,1584.69 1478.03,1582.03 1476,1578.5C 1472.91,1572.99 1470.41,1567.32 1468.5,1561.5 Z"/></g>
<g><path style="opacity:1" fill="#f8dad6" d="M 822.5,1563.5 C 823.5,1563.5 824.5,1563.5 825.5,1563.5C 825.5,1564.83 825.5,1566.17 825.5,1567.5C 825.585,1569 824.919,1570 823.5,1570.5C 822.526,1568.26 822.192,1565.92 822.5,1563.5 Z"/></g>
<g><path style="opacity:1" fill="#db7671" d="M 822.5,1563.5 C 823.568,1562.57 824.901,1562.23 826.5,1562.5C 826.784,1564.41 826.451,1566.08 825.5,1567.5C 825.5,1566.17 825.5,1564.83 825.5,1563.5C 824.5,1563.5 823.5,1563.5 822.5,1563.5 Z"/></g>
<g><path style="opacity:1" fill="#f7d7d3" d="M 565.5,1564.5 C 570.323,1564.33 572.323,1566.66 571.5,1571.5C 565.472,1572.41 563.472,1570.08 565.5,1564.5 Z"/></g>
<g><path style="opacity:1" fill="#f7d9d5" d="M 667.5,1566.5 C 669.167,1566.5 670.833,1566.5 672.5,1566.5C 672.616,1569.91 670.95,1571.24 667.5,1570.5C 667.5,1569.17 667.5,1567.83 667.5,1566.5 Z"/></g>
<g><path style="opacity:1" fill="#fae8e5" d="M 791.5,1565.5 C 793.371,1565.86 794.871,1566.86 796,1568.5C 796.762,1572.33 796.262,1576 794.5,1579.5C 790.645,1581 786.645,1581.67 782.5,1581.5C 782.33,1580.18 782.663,1579.01 783.5,1578C 786.249,1576.88 788.749,1575.38 791,1573.5C 791.497,1570.85 791.664,1568.19 791.5,1565.5 Z"/></g>
<g><path style="opacity:1" fill="#f4d0cc" d="M 582.5,1568.5 C 583.833,1568.5 585.167,1568.5 586.5,1568.5C 586.114,1572.74 584.448,1573.4 581.5,1570.5C 581.863,1569.82 582.196,1569.15 582.5,1568.5 Z"/></g>
<g><path style="opacity:1" fill="#fbeeea" d="M 715.5,1568.5 C 719.555,1568.18 723.555,1568.51 727.5,1569.5C 730.616,1578.96 732.616,1588.63 733.5,1598.5C 729.818,1599.27 727.318,1597.94 726,1594.5C 725.501,1589.85 725.334,1585.18 725.5,1580.5C 717.777,1581.22 710.11,1582.22 702.5,1583.5C 702.343,1582.13 702.51,1580.79 703,1579.5C 706.767,1575.22 710.934,1571.56 715.5,1568.5 Z"/></g>
<g><path style="opacity:1" fill="#f3c7c3" d="M 592.5,1569.5 C 593.5,1569.5 594.5,1569.5 595.5,1569.5C 595.5,1570.5 595.5,1571.5 595.5,1572.5C 594.5,1572.5 593.5,1572.5 592.5,1572.5C 592.5,1571.5 592.5,1570.5 592.5,1569.5 Z"/></g>
<g><path style="opacity:1" fill="#f7d7d3" d="M 805.5,1569.5 C 807.167,1569.5 808.833,1569.5 810.5,1569.5C 810.254,1572.47 808.588,1573.8 805.5,1573.5C 805.5,1572.17 805.5,1570.83 805.5,1569.5 Z"/></g>
<g><path style="opacity:1" fill="#fbece8" d="M 1235.5,1573.5 C 1234.83,1577.5 1234.17,1577.5 1233.5,1573.5C 1233.79,1571.07 1234.45,1571.07 1235.5,1573.5 Z"/></g>
<g><path style="opacity:1" fill="#f2c5c0" d="M 1532.5,1574.5 C 1537.01,1575.42 1541.35,1576.92 1545.5,1579C 1541.32,1579.61 1537.32,1578.94 1533.5,1577C 1532.75,1576.33 1532.41,1575.5 1532.5,1574.5 Z"/></g>
<g><path style="opacity:1" fill="#dd807a" d="M 1233.5,1573.5 C 1234.17,1577.5 1234.83,1577.5 1235.5,1573.5C 1236.43,1574.57 1236.77,1575.9 1236.5,1577.5C 1235.17,1577.5 1233.83,1577.5 1232.5,1577.5C 1232.23,1575.9 1232.57,1574.57 1233.5,1573.5 Z"/></g>
<g><path style="opacity:1" fill="#fae6e3" d="M 1315.5,1576.5 C 1323.27,1575.86 1326.27,1579.36 1324.5,1587C 1314.89,1588.58 1311.89,1585.08 1315.5,1576.5 Z"/></g>
<g><path style="opacity:1" fill="#eaa39c" d="M 1420.5,1575.5 C 1423.19,1575.34 1425.85,1575.5 1428.5,1576C 1429.8,1578.39 1428.96,1579.56 1426,1579.5C 1422.72,1579.04 1419.55,1578.21 1416.5,1577C 1418.06,1576.79 1419.39,1576.29 1420.5,1575.5 Z"/></g>
<g><path style="opacity:1" fill="#f7d9d4" d="M 588.5,1577.5 C 592.35,1577.7 593.35,1579.53 591.5,1583C 590.207,1583.49 588.873,1583.66 587.5,1583.5C 587.517,1581.44 587.85,1579.44 588.5,1577.5 Z"/></g>
<g><path style="opacity:1" fill="#f6d4d0" d="M 610.5,1577.5 C 612.167,1577.5 613.833,1577.5 615.5,1577.5C 615.65,1581.16 614.15,1582.16 611,1580.5C 610.517,1579.55 610.351,1578.55 610.5,1577.5 Z"/></g>
<g><path style="opacity:1" fill="#f6dad6" d="M 599.5,1577.5 C 601.465,1577.95 601.798,1578.95 600.5,1580.5C 599.614,1579.68 599.281,1578.68 599.5,1577.5 Z"/></g>
<g><path style="opacity:1" fill="#f4cdc8" d="M 626.5,1578.5 C 628.167,1578.5 629.833,1578.5 631.5,1578.5C 631.5,1579.5 631.5,1580.5 631.5,1581.5C 629.396,1581.8 627.396,1581.47 625.5,1580.5C 625.863,1579.82 626.196,1579.15 626.5,1578.5 Z"/></g>
<g><path style="opacity:1" fill="#f9e1dc" d="M 679.5,1577.5 C 684.012,1579.5 687.845,1582.5 691,1586.5C 692.568,1590.92 691.068,1592.92 686.5,1592.5C 686.643,1590.74 686.309,1589.07 685.5,1587.5C 680.736,1585.91 678.736,1582.58 679.5,1577.5 Z"/></g>
<g><path style="opacity:1" fill="#fae7e3" d="M 744.5,1578.5 C 748.273,1578.26 751.94,1578.76 755.5,1580C 756.554,1581.39 756.72,1582.89 756,1584.5C 751.631,1586.27 747.965,1585.27 745,1581.5C 744.517,1580.55 744.351,1579.55 744.5,1578.5 Z"/></g>
<g><path style="opacity:1" fill="#f5d0cc" d="M 821.5,1578.5 C 822.5,1578.5 823.5,1578.5 824.5,1578.5C 824.5,1579.5 824.5,1580.5 824.5,1581.5C 823.5,1581.5 822.5,1581.5 821.5,1581.5C 821.5,1580.5 821.5,1579.5 821.5,1578.5 Z"/></g>
<g><path style="opacity:1" fill="#f6d2cd" d="M 1436.5,1579.5 C 1444.18,1581.48 1444.18,1582.48 1436.5,1582.5C 1436.5,1581.5 1436.5,1580.5 1436.5,1579.5 Z"/></g>
<g><path style="opacity:1" fill="#f4cdc9" d="M 811.5,1580.5 C 816.486,1580.3 818.152,1582.47 816.5,1587C 811.614,1587.41 809.948,1585.24 811.5,1580.5 Z"/></g>
<g><path style="opacity:1" fill="#fae5e2" d="M 534.5,1583.5 C 535.833,1583.5 537.167,1583.5 538.5,1583.5C 538.5,1584.5 538.5,1585.5 538.5,1586.5C 537.5,1586.5 536.5,1586.5 535.5,1586.5C 534.596,1585.79 534.263,1584.79 534.5,1583.5 Z"/></g>
<g><path style="opacity:1" fill="#e08580" d="M 534.5,1583.5 C 535.919,1582.55 537.585,1582.22 539.5,1582.5C 539.5,1584.17 539.5,1585.83 539.5,1587.5C 537.901,1587.77 536.568,1587.43 535.5,1586.5C 536.5,1586.5 537.5,1586.5 538.5,1586.5C 538.5,1585.5 538.5,1584.5 538.5,1583.5C 537.167,1583.5 535.833,1583.5 534.5,1583.5 Z"/></g>
<g><path style="opacity:1" fill="#eca9a3" d="M 643.5,1583.5 C 644.833,1583.5 646.167,1583.5 647.5,1583.5C 647.778,1585.35 647.111,1586.68 645.5,1587.5C 643.889,1586.68 643.222,1585.35 643.5,1583.5 Z"/></g>
<g><path style="opacity:1" fill="#f6d0ca" d="M 1336.5,1583.5 C 1342.95,1583.9 1343.95,1586.4 1339.5,1591C 1337.89,1591.72 1336.39,1591.55 1335,1590.5C 1334.86,1588.08 1335.36,1585.75 1336.5,1583.5 Z"/></g>
<g><path style="opacity:1" fill="#f4ceca" d="M 664.5,1586.5 C 665.5,1586.5 666.5,1586.5 667.5,1586.5C 667.5,1587.83 667.5,1589.17 667.5,1590.5C 666.5,1590.5 665.5,1590.5 664.5,1590.5C 664.5,1589.17 664.5,1587.83 664.5,1586.5 Z"/></g>
<g><path style="opacity:1" fill="#fae6e2" d="M 767.5,1586.5 C 770.649,1586.21 773.649,1586.71 776.5,1588C 777.982,1595.17 775.316,1597.17 768.5,1594C 767.565,1591.62 767.232,1589.12 767.5,1586.5 Z"/></g>
<g><path style="opacity:1" fill="#fae4e1" d="M 791.5,1587.5 C 792.833,1587.5 794.167,1587.5 795.5,1587.5C 795.634,1595.24 793.967,1602.57 790.5,1609.5C 788.955,1610.45 787.288,1610.79 785.5,1610.5C 785.863,1602.41 787.863,1594.74 791.5,1587.5 Z"/></g>
<g><path style="opacity:1" fill="#f7d7d3" d="M 1197.5,1588.5 C 1202.85,1589.18 1204.68,1592.18 1203,1597.5C 1201.99,1598.34 1200.82,1598.67 1199.5,1598.5C 1198.83,1595.17 1198.17,1591.83 1197.5,1588.5 Z"/></g>
<g><path style="opacity:1" fill="#f5d0cc" d="M 1235.5,1589.5 C 1241.45,1590.13 1244.12,1593.46 1243.5,1599.5C 1242.5,1599.5 1241.5,1599.5 1240.5,1599.5C 1239.69,1595.7 1238.02,1592.37 1235.5,1589.5 Z"/></g>
<g><path style="opacity:1" fill="#fae6e2" d="M 627.5,1590.5 C 630.601,1590.69 633.601,1591.36 636.5,1592.5C 638.515,1596.79 637.181,1599.12 632.5,1599.5C 633.771,1602.69 634.771,1606.02 635.5,1609.5C 631.818,1610.27 629.318,1608.94 628,1605.5C 627.501,1600.51 627.334,1595.51 627.5,1590.5 Z"/></g>
<g><path style="opacity:1" fill="#f8ddd9" d="M 593.5,1591.5 C 595.527,1591.34 597.527,1591.5 599.5,1592C 599.957,1592.41 600.291,1592.91 600.5,1593.5C 598.926,1594.63 597.259,1594.8 595.5,1594C 594.244,1593.58 593.577,1592.75 593.5,1591.5 Z"/></g>
<g><path style="opacity:1" fill="#da746e" d="M 557.5,1593.5 C 558.568,1592.57 559.901,1592.23 561.5,1592.5C 561.5,1594.17 561.5,1595.83 561.5,1597.5C 560.209,1597.74 559.209,1597.4 558.5,1596.5C 560.048,1596.18 560.715,1595.18 560.5,1593.5C 559.5,1593.5 558.5,1593.5 557.5,1593.5 Z"/></g>
<g><path style="opacity:1" fill="#f8dfdc" d="M 557.5,1593.5 C 558.5,1593.5 559.5,1593.5 560.5,1593.5C 560.715,1595.18 560.048,1596.18 558.5,1596.5C 557.596,1595.79 557.263,1594.79 557.5,1593.5 Z"/></g>
<g><path style="opacity:1" fill="#f8dedb" d="M 611.5,1593.5 C 612.5,1593.5 613.5,1593.5 614.5,1593.5C 614.5,1594.5 614.5,1595.5 614.5,1596.5C 611.433,1596.88 610.433,1595.88 611.5,1593.5 Z"/></g>
<g><path style="opacity:1" fill="#fbe8e4" d="M 743.5,1594.5 C 748.593,1595.04 753.593,1596.04 758.5,1597.5C 760.403,1602.55 758.736,1605.05 753.5,1605C 750.333,1602.5 747.167,1600 744,1597.5C 743.517,1596.55 743.351,1595.55 743.5,1594.5 Z"/></g>
<g><path style="opacity:1" fill="#fcf0ec" d="M 658.5,1595.5 C 663.511,1595.33 668.511,1595.5 673.5,1596C 678.501,1600.14 680.501,1605.31 679.5,1611.5C 672.036,1614.8 665.202,1613.8 659,1608.5C 657.536,1604.14 657.37,1599.81 658.5,1595.5 Z"/></g>
<g><path style="opacity:1" fill="#fbebe8" d="M 847.5,1595.5 C 856.403,1599.02 865.403,1599.35 874.5,1596.5C 874.891,1600.38 874.224,1604.05 872.5,1607.5C 867.246,1606.96 862.08,1607.63 857,1609.5C 855.236,1609.46 853.569,1609.12 852,1608.5C 849.123,1604.66 847.623,1600.33 847.5,1595.5 Z"/></g>
<g><path style="opacity:1" fill="#f8dad5" d="M 1300.5,1595.5 C 1302.17,1595.5 1303.83,1595.5 1305.5,1595.5C 1306.15,1600.33 1304.15,1602.16 1299.5,1601C 1298.24,1598.92 1298.58,1597.09 1300.5,1595.5 Z"/></g>
<g><path style="opacity:1" fill="#f3ccc7" d="M 1396.5,1595.5 C 1397.59,1595.62 1398.25,1596.29 1398.5,1597.5C 1398.17,1598.17 1397.83,1598.83 1397.5,1599.5C 1396.57,1598.31 1396.24,1596.98 1396.5,1595.5 Z"/></g>
<g><path style="opacity:1" fill="#fbeae6" d="M 571.5,1597.5 C 578.317,1597.68 580.317,1601.02 577.5,1607.5C 575.253,1608.37 572.92,1608.71 570.5,1608.5C 570.244,1604.73 570.577,1601.06 571.5,1597.5 Z"/></g>
<g><path style="opacity:1" fill="#f7d4d0" d="M 1230.5,1600.5 C 1233.46,1600.73 1234.8,1602.4 1234.5,1605.5C 1234.22,1609.98 1232.72,1613.98 1230,1617.5C 1229.26,1611.78 1229.43,1606.12 1230.5,1600.5 Z"/></g>
<g><path style="opacity:1" fill="#f6d8d3" d="M 907.5,1603.5 C 908.833,1603.5 910.167,1603.5 911.5,1603.5C 911.5,1604.5 911.5,1605.5 911.5,1606.5C 910.167,1606.5 908.833,1606.5 907.5,1606.5C 907.5,1605.5 907.5,1604.5 907.5,1603.5 Z"/></g>
<g><path style="opacity:1" fill="#dda59a" d="M 1028.5,1604.5 C 1038.99,1603.51 1049.65,1603.17 1060.5,1603.5C 1054.86,1604.7 1049.2,1605.7 1043.5,1606.5C 1038.43,1606.03 1033.43,1605.36 1028.5,1604.5 Z"/></g>
<g><path style="opacity:1" fill="#f8e0dc" d="M 1007.5,1604.5 C 1014.5,1604.5 1021.5,1604.5 1028.5,1604.5C 1033.43,1605.36 1038.43,1606.03 1043.5,1606.5C 1047.72,1606.43 1050.05,1608.43 1050.5,1612.5C 1047.15,1612.67 1043.82,1612.5 1040.5,1612C 1029.51,1608.84 1018.51,1606.34 1007.5,1604.5 Z"/></g>
<g><path style="opacity:1" fill="#fbece9" d="M 884.5,1605.5 C 888.077,1605.21 891.243,1606.21 894,1608.5C 894.706,1610.97 894.373,1613.3 893,1615.5C 887.125,1619.51 880.625,1621.85 873.5,1622.5C 873.16,1618.87 873.994,1615.54 876,1612.5C 879.023,1610.3 881.856,1607.97 884.5,1605.5 Z"/></g>
<g><path style="opacity:1" fill="#efbbb6" d="M 594.5,1607.5 C 598.31,1608.75 598.31,1609.75 594.5,1610.5C 594.5,1609.5 594.5,1608.5 594.5,1607.5 Z"/></g>
<g><path style="opacity:1" fill="#fbece8" d="M 732.5,1609.5 C 738.386,1608.34 743.219,1610.01 747,1614.5C 747.172,1619.2 747.672,1623.87 748.5,1628.5C 752.96,1630.62 757.627,1632.12 762.5,1633C 763.731,1634.18 763.731,1635.35 762.5,1636.5C 758.091,1634.08 753.425,1633.25 748.5,1634C 747.174,1637.2 747.841,1640.04 750.5,1642.5C 747.097,1644.09 744.097,1646.09 741.5,1648.5C 739.749,1643.66 738.582,1638.66 738,1633.5C 732.603,1629.48 731.436,1624.48 734.5,1618.5C 732.739,1616.75 731.406,1614.75 730.5,1612.5C 730.942,1611.26 731.609,1610.26 732.5,1609.5 Z"/></g>
<g><path style="opacity:1" fill="#fae6e3" d="M 608.5,1610.5 C 609.822,1610.33 610.989,1610.66 612,1611.5C 612.495,1613.47 612.662,1615.47 612.5,1617.5C 611.167,1617.5 609.833,1617.5 608.5,1617.5C 608.5,1615.17 608.5,1612.83 608.5,1610.5 Z"/></g>
<g><path style="opacity:1" fill="#f9e1dd" d="M 986.5,1614.5 C 986.38,1615.59 985.713,1616.25 984.5,1616.5C 983.287,1616.25 982.62,1615.59 982.5,1614.5C 983.665,1611.98 984.998,1611.98 986.5,1614.5 Z"/></g>
<g><path style="opacity:1" fill="#f9e6e1" d="M 1515.5,1628.5 C 1513.11,1631.86 1510.11,1634.53 1506.5,1636.5C 1504.86,1634.52 1503.19,1632.52 1501.5,1630.5C 1503.58,1627.88 1505.74,1627.88 1508,1630.5C 1508.67,1629.5 1508.67,1628.5 1508,1627.5C 1504.86,1624.27 1501.52,1621.27 1498,1618.5C 1496.44,1616.23 1496.28,1613.9 1497.5,1611.5C 1504.83,1615.84 1510.83,1621.5 1515.5,1628.5 Z"/></g>
<g><path style="opacity:1" fill="#f8dcd8" d="M 709.5,1612.5 C 712.553,1612.91 715.553,1613.58 718.5,1614.5C 719.429,1615.69 719.762,1617.02 719.5,1618.5C 716.091,1618.75 712.758,1618.42 709.5,1617.5C 708.334,1615.83 708.334,1614.17 709.5,1612.5 Z"/></g>
<g><path style="opacity:1" fill="#f3c8c3" d="M 650.5,1613.5 C 653.833,1613.5 655.5,1615.17 655.5,1618.5C 651.5,1619.17 649.833,1617.5 650.5,1613.5 Z"/></g>
<g><path style="opacity:1" fill="#f6d3ce" d="M 1371.5,1614.5 C 1374.85,1614.33 1378.18,1614.5 1381.5,1615C 1381.96,1615.41 1382.29,1615.91 1382.5,1616.5C 1379.89,1617.65 1377.23,1617.82 1374.5,1617C 1372.88,1616.76 1371.88,1615.93 1371.5,1614.5 Z"/></g>
<g><path style="opacity:1" fill="#f4ccc7" d="M 1126.5,1615.5 C 1129.5,1615.17 1130.83,1616.5 1130.5,1619.5C 1129.17,1619.5 1127.83,1619.5 1126.5,1619.5C 1126.5,1618.17 1126.5,1616.83 1126.5,1615.5 Z"/></g>
<g><path style="opacity:1" fill="#dc7973" d="M 982.5,1614.5 C 982.62,1615.59 983.287,1616.25 984.5,1616.5C 985.713,1616.25 986.38,1615.59 986.5,1614.5C 987.404,1615.21 987.737,1616.21 987.5,1617.5C 985.5,1617.5 983.5,1617.5 981.5,1617.5C 981.263,1616.21 981.596,1615.21 982.5,1614.5 Z"/></g>
<g><path style="opacity:1" fill="#fcedea" d="M 675.5,1617.5 C 680.154,1618.33 684.82,1619.16 689.5,1620C 691.513,1620.68 692.846,1622.01 693.5,1624C 691.406,1629.31 687.74,1631.14 682.5,1629.5C 677.691,1632.43 674.857,1636.76 674,1642.5C 672.644,1643.38 671.144,1643.71 669.5,1643.5C 668.344,1639.55 667.844,1635.55 668,1631.5C 671.602,1628.82 673.269,1625.16 673,1620.5C 674.045,1619.63 674.878,1618.63 675.5,1617.5 Z"/></g>
<g><path style="opacity:1" fill="#f6d6d2" d="M 706.5,1619.5 C 712.668,1619.97 717.335,1622.97 720.5,1628.5C 713.337,1629.58 708.67,1626.58 706.5,1619.5 Z"/></g>
<g><path style="opacity:1" fill="#f8deda" d="M 1169.5,1620.5 C 1169.5,1621.5 1169.5,1622.5 1169.5,1623.5C 1168.17,1623.5 1166.83,1623.5 1165.5,1623.5C 1163.16,1623.5 1161.16,1622.66 1159.5,1621C 1162.82,1620.5 1166.15,1620.33 1169.5,1620.5 Z"/></g>
<g><path style="opacity:1" fill="#f6d5d0" d="M 786.5,1621.5 C 788.344,1622.2 788.844,1623.54 788,1625.5C 787.101,1627.33 785.767,1628.66 784,1629.5C 783.5,1629.17 783,1628.83 782.5,1628.5C 783.861,1626.15 785.194,1623.82 786.5,1621.5 Z"/></g>
<g><path style="opacity:1" fill="#dd7e78" d="M 1169.5,1620.5 C 1170.43,1621.57 1170.77,1622.9 1170.5,1624.5C 1168.59,1624.78 1166.92,1624.45 1165.5,1623.5C 1166.83,1623.5 1168.17,1623.5 1169.5,1623.5C 1169.5,1622.5 1169.5,1621.5 1169.5,1620.5 Z"/></g>
<g><path style="opacity:1" fill="#fbeae6" d="M 906.5,1625.5 C 911.179,1625.33 915.845,1625.5 920.5,1626C 924.5,1628.33 924.5,1630.67 920.5,1633C 914.175,1633.5 907.842,1633.67 901.5,1633.5C 901.34,1631.8 901.506,1630.13 902,1628.5C 903.652,1627.6 905.152,1626.6 906.5,1625.5 Z"/></g>
<g><path style="opacity:1" fill="#f3c7c2" d="M 721.5,1629.5 C 722.873,1629.34 724.207,1629.51 725.5,1630C 726.833,1632.33 726.167,1633.33 723.5,1633C 722.177,1632.18 721.511,1631.02 721.5,1629.5 Z"/></g>
<g><path style="opacity:1" fill="#fae7e3" d="M 1427.5,1633.5 C 1433.85,1633.25 1439.85,1634.59 1445.5,1637.5C 1446.64,1639.42 1446.81,1641.42 1446,1643.5C 1438.74,1648.18 1432.41,1647.18 1427,1640.5C 1426.3,1638.07 1426.46,1635.74 1427.5,1633.5 Z"/></g>
<g><path style="opacity:1" fill="#f7dbd7" d="M 679.5,1635.5 C 680.5,1635.5 681.5,1635.5 682.5,1635.5C 682.778,1637.35 682.111,1638.68 680.5,1639.5C 679.571,1638.31 679.238,1636.98 679.5,1635.5 Z"/></g>
<g><path style="opacity:1" fill="#f5cfca" d="M 693.5,1630.5 C 697.737,1632.98 702.07,1635.31 706.5,1637.5C 704.926,1638.63 703.259,1638.8 701.5,1638C 699.404,1636.23 697.071,1634.9 694.5,1634C 693.663,1632.99 693.33,1631.82 693.5,1630.5 Z"/></g>
<g><path style="opacity:1" fill="#fae4e1" d="M 828.5,1651.5 C 831.159,1651.92 833.492,1652.92 835.5,1654.5C 835.026,1657.81 833.359,1660.15 830.5,1661.5C 827.307,1656.66 823.307,1652.5 818.5,1649C 814.284,1647.32 809.951,1646.15 805.5,1645.5C 804.659,1643.62 804.325,1641.62 804.5,1639.5C 806.099,1639.77 807.432,1639.43 808.5,1638.5C 810.228,1637.62 812.061,1636.95 814,1636.5C 814.833,1636.83 815.667,1637.17 816.5,1637.5C 815.5,1638.83 814.5,1640.17 813.5,1641.5C 818.041,1645.6 823.041,1648.93 828.5,1651.5 Z"/></g>
<g><path style="opacity:1" fill="#f4cfca" d="M 782.5,1638.5 C 784.346,1638.22 785.68,1638.89 786.5,1640.5C 785.311,1641.43 783.978,1641.76 782.5,1641.5C 782.5,1640.5 782.5,1639.5 782.5,1638.5 Z"/></g>
<g><path style="opacity:1" fill="#dc7a74" d="M 808.5,1638.5 C 807.432,1639.43 806.099,1639.77 804.5,1639.5C 804.325,1641.62 804.659,1643.62 805.5,1645.5C 803.656,1643.72 802.99,1641.39 803.5,1638.5C 805.167,1638.5 806.833,1638.5 808.5,1638.5 Z"/></g>
<g><path style="opacity:1" fill="#fae8e4" d="M 684.5,1640.5 C 689.49,1640.78 691.324,1643.45 690,1648.5C 689.308,1649.03 688.808,1649.69 688.5,1650.5C 691.353,1655.76 692.686,1661.42 692.5,1667.5C 687.03,1667.75 681.696,1667.09 676.5,1665.5C 675.25,1678.77 671.417,1679.77 665,1668.5C 664.333,1663.5 664.333,1658.5 665,1653.5C 665.689,1652.64 666.522,1651.98 667.5,1651.5C 669.611,1654.21 671.611,1657.04 673.5,1660C 677.674,1661.02 680.674,1659.52 682.5,1655.5C 680.02,1652.64 679.02,1649.31 679.5,1645.5C 681.167,1645.5 682.833,1645.5 684.5,1645.5C 684.5,1643.83 684.5,1642.17 684.5,1640.5 Z"/></g>
<g><path style="opacity:1" fill="#dd807b" d="M 640.5,1641.5 C 639.518,1644.96 639.185,1648.63 639.5,1652.5C 638.191,1648.65 638.191,1644.65 639.5,1640.5C 640.107,1640.62 640.44,1640.96 640.5,1641.5 Z"/></g>
<g><path style="opacity:1" fill="#f6d2ce" d="M 640.5,1641.5 C 641.496,1641.41 642.329,1641.75 643,1642.5C 643.667,1645.17 643.667,1647.83 643,1650.5C 642.184,1651.82 641.017,1652.49 639.5,1652.5C 639.185,1648.63 639.518,1644.96 640.5,1641.5 Z"/></g>
<g><path style="opacity:1" fill="#fbeae5" d="M 702.5,1643.5 C 704.5,1643.5 706.5,1643.5 708.5,1643.5C 708.216,1645.41 708.549,1647.08 709.5,1648.5C 712.551,1652.53 716.551,1653.53 721.5,1651.5C 724.133,1646.31 726.467,1646.31 728.5,1651.5C 727.701,1655.91 725.034,1657.91 720.5,1657.5C 722.476,1665.12 725.809,1672.12 730.5,1678.5C 729.277,1679.61 727.944,1679.78 726.5,1679C 724.5,1677 722.5,1675 720.5,1673C 717.132,1672.46 713.799,1672.62 710.5,1673.5C 710.5,1670.83 710.5,1668.17 710.5,1665.5C 709.209,1665.26 708.209,1665.6 707.5,1666.5C 705.194,1666.99 702.861,1667.33 700.5,1667.5C 700.899,1659.33 701.565,1651.33 702.5,1643.5 Z"/></g>
<g><path style="opacity:1" fill="#da726a" d="M 702.5,1643.5 C 704.607,1642.53 706.941,1642.2 709.5,1642.5C 709.5,1644.5 709.5,1646.5 709.5,1648.5C 708.549,1647.08 708.216,1645.41 708.5,1643.5C 706.5,1643.5 704.5,1643.5 702.5,1643.5 Z"/></g>
<g><path style="opacity:1" fill="#f9e1dd" d="M 604.5,1648.5 C 608.5,1647.83 610.167,1649.5 609.5,1653.5C 607.833,1653.5 606.167,1653.5 604.5,1653.5C 604.5,1651.83 604.5,1650.17 604.5,1648.5 Z"/></g>
<g><path style="opacity:1" fill="#f2c2bc" d="M 781.5,1647.5 C 785.509,1647.01 787.342,1648.68 787,1652.5C 782.974,1653.65 781.141,1651.99 781.5,1647.5 Z"/></g>
<g><path style="opacity:1" fill="#de817c" d="M 828.5,1651.5 C 831.167,1651.5 833.833,1651.5 836.5,1651.5C 836.737,1652.79 836.404,1653.79 835.5,1654.5C 833.492,1652.92 831.159,1651.92 828.5,1651.5 Z"/></g>
<g><path style="opacity:1" fill="#fae7e4" d="M 1202.5,1654.5 C 1202.5,1655.5 1202.5,1656.5 1202.5,1657.5C 1200.83,1657.5 1199.17,1657.5 1197.5,1657.5C 1194.93,1655.87 1194.26,1653.7 1195.5,1651C 1198.99,1650.08 1201.33,1651.25 1202.5,1654.5 Z"/></g>
<g><path style="opacity:1" fill="#f3c2bd" d="M 1178.5,1651.5 C 1180.23,1651.84 1180.73,1652.84 1180,1654.5C 1178.96,1653.76 1178.46,1652.76 1178.5,1651.5 Z"/></g>
<g><path style="opacity:1" fill="#f1bcb6" d="M 754.5,1652.5 C 755.5,1652.5 756.5,1652.5 757.5,1652.5C 757.5,1653.83 757.5,1655.17 757.5,1656.5C 756.5,1656.5 755.5,1656.5 754.5,1656.5C 754.5,1655.17 754.5,1653.83 754.5,1652.5 Z"/></g>
<g><path style="opacity:1" fill="#f9e3df" d="M 842.5,1662.5 C 839.918,1662.97 837.918,1662.31 836.5,1660.5C 838.509,1659.26 840.175,1657.59 841.5,1655.5C 844.106,1654.35 846.773,1654.18 849.5,1655C 850.535,1656.51 850.368,1658.01 849,1659.5C 847.13,1661.22 844.963,1662.22 842.5,1662.5 Z"/></g>
<g><path style="opacity:1" fill="#fae7e2" d="M 806.5,1656.5 C 813.327,1655.83 816.16,1658.83 815,1665.5C 812.959,1666.42 810.792,1666.76 808.5,1666.5C 808.453,1663.03 807.787,1659.7 806.5,1656.5 Z"/></g>
<g><path style="opacity:1" fill="#e9a39d" d="M 1225.5,1643.5 C 1226.59,1650.61 1225.76,1657.61 1223,1664.5C 1223.72,1657.56 1224.55,1650.56 1225.5,1643.5 Z"/></g>
<g><path style="opacity:1" fill="#e59994" d="M 1202.5,1654.5 C 1203.43,1655.57 1203.77,1656.9 1203.5,1658.5C 1201.26,1658.79 1199.26,1658.46 1197.5,1657.5C 1199.17,1657.5 1200.83,1657.5 1202.5,1657.5C 1202.5,1656.5 1202.5,1655.5 1202.5,1654.5 Z"/></g>
<g><path style="opacity:1" fill="#fbeae7" d="M 661.5,1693.5 C 652.111,1689.77 643.778,1684.44 636.5,1677.5C 635.542,1676.04 634.376,1674.71 633,1673.5C 632.389,1669.91 633.889,1668.75 637.5,1670C 640.036,1672.59 643.036,1673.09 646.5,1671.5C 645.685,1675.83 647.352,1678.17 651.5,1678.5C 651.334,1673.49 651.501,1668.49 652,1663.5C 653.739,1661.26 655.906,1659.59 658.5,1658.5C 659.799,1659.09 660.632,1660.09 661,1661.5C 661.333,1664.83 661.667,1668.17 662,1671.5C 668.814,1679.49 667.314,1682.15 657.5,1679.5C 657.174,1682.61 658.341,1684.94 661,1686.5C 661.497,1688.81 661.663,1691.14 661.5,1693.5 Z"/></g>
<g><path style="opacity:1" fill="#db7771" d="M 892.5,1660.5 C 894.265,1659.54 896.265,1659.21 898.5,1659.5C 898.737,1660.79 898.404,1661.79 897.5,1662.5C 896.448,1660.74 894.781,1660.08 892.5,1660.5 Z"/></g>
<g><path style="opacity:1" fill="#f7d9d4" d="M 892.5,1660.5 C 894.781,1660.08 896.448,1660.74 897.5,1662.5C 896.952,1665.08 895.285,1666.08 892.5,1665.5C 892.5,1663.83 892.5,1662.17 892.5,1660.5 Z"/></g>
<g><path style="opacity:1" fill="#f5d0cc" d="M 769.5,1662.5 C 771.465,1662.95 771.798,1663.95 770.5,1665.5C 769.614,1664.68 769.281,1663.68 769.5,1662.5 Z"/></g>
<g><path style="opacity:1" fill="#dc7b75" d="M 836.5,1660.5 C 837.918,1662.31 839.918,1662.97 842.5,1662.5C 840.393,1663.47 838.059,1663.8 835.5,1663.5C 835.263,1662.21 835.596,1661.21 836.5,1660.5 Z"/></g>
<g><path style="opacity:1" fill="#f3c7c2" d="M 1231.5,1663.5 C 1232.5,1663.5 1233.5,1663.5 1234.5,1663.5C 1234.78,1665.35 1234.11,1666.68 1232.5,1667.5C 1231.57,1666.31 1231.24,1664.98 1231.5,1663.5 Z"/></g>
<g><path style="opacity:1" fill="#fbece7" d="M 858.5,1665.5 C 868.332,1666.12 877.665,1668.62 886.5,1673C 884.129,1673.73 881.795,1674.57 879.5,1675.5C 878.526,1677.74 878.192,1680.08 878.5,1682.5C 872.725,1684.76 866.725,1685.76 860.5,1685.5C 860.509,1683.69 860.009,1682.02 859,1680.5C 857.437,1679.27 856.27,1677.77 855.5,1676C 856.615,1673.38 857.949,1670.88 859.5,1668.5C 858.873,1667.58 858.539,1666.58 858.5,1665.5 Z"/></g>
<g><path style="opacity:1" fill="#e2918c" d="M 707.5,1666.5 C 708.209,1665.6 709.209,1665.26 710.5,1665.5C 710.5,1668.17 710.5,1670.83 710.5,1673.5C 710.083,1670.84 709.083,1668.51 707.5,1666.5 Z"/></g>
<g><path style="opacity:1" fill="#fbe9e6" d="M 820.5,1667.5 C 822.167,1667.5 823.833,1667.5 825.5,1667.5C 825.5,1668.5 825.5,1669.5 825.5,1670.5C 822.901,1670.55 820.734,1671.55 819,1673.5C 818.603,1679.31 815.936,1683.64 811,1686.5C 804.323,1676.02 807.156,1670.19 819.5,1669C 820.056,1668.62 820.389,1668.12 820.5,1667.5 Z"/></g>
<g><path style="opacity:1" fill="#f9e2dd" d="M 1150.5,1667.5 C 1151.83,1667.5 1153.17,1667.5 1154.5,1667.5C 1154.59,1672.54 1154.25,1677.54 1153.5,1682.5C 1152.5,1682.5 1151.5,1682.5 1150.5,1682.5C 1150.7,1680.61 1150.04,1679.11 1148.5,1678C 1145.82,1677.57 1143.15,1677.73 1140.5,1678.5C 1138.7,1678.42 1137.03,1677.92 1135.5,1677C 1143.15,1677.75 1148.15,1674.59 1150.5,1667.5 Z"/></g>
<g><path style="opacity:1" fill="#d3584c" d="M 868.5,1669.5 C 871.91,1669.38 873.244,1671.05 872.5,1674.5C 869.09,1674.62 867.756,1672.95 868.5,1669.5 Z"/></g>
<g><path style="opacity:1" fill="#f3c7c2" d="M 783.5,1671.5 C 784.833,1671.5 786.167,1671.5 787.5,1671.5C 787.5,1672.83 787.5,1674.17 787.5,1675.5C 786.167,1675.5 784.833,1675.5 783.5,1675.5C 783.5,1674.17 783.5,1672.83 783.5,1671.5 Z"/></g>
<g><path style="opacity:1" fill="#f9e0dd" d="M 1111.5,1671.5 C 1114.32,1671.03 1116.32,1672.03 1117.5,1674.5C 1116.71,1679.84 1114.88,1680.51 1112,1676.5C 1111.51,1674.87 1111.34,1673.2 1111.5,1671.5 Z"/></g>
<g><path style="opacity:1" fill="#f4c8c3" d="M 1234.5,1677.5 C 1235.82,1677.33 1236.99,1677.66 1238,1678.5C 1238.67,1681.5 1238.67,1684.5 1238,1687.5C 1235.74,1684.56 1234.58,1681.23 1234.5,1677.5 Z"/></g>
<g><path style="opacity:1" fill="#f8dbd6" d="M 1355.5,1681.5 C 1359.14,1680.74 1360.64,1682.07 1360,1685.5C 1355.42,1687.41 1353.92,1686.08 1355.5,1681.5 Z"/></g>
<g><path style="opacity:1" fill="#f9e4df" d="M 676.5,1703.5 C 674.205,1702.53 672.205,1701.19 670.5,1699.5C 671.097,1699.26 671.43,1698.76 671.5,1698C 669.467,1696.3 667.8,1694.3 666.5,1692C 667.032,1689.98 668.365,1689.15 670.5,1689.5C 670.516,1683.93 672.683,1682.6 677,1685.5C 678.013,1689.22 679.18,1692.89 680.5,1696.5C 679.002,1698.85 677.668,1701.19 676.5,1703.5 Z"/></g>
<g><path style="opacity:1" fill="#f5d3ce" d="M 1173.5,1687.5 C 1175.29,1687.21 1176.95,1687.55 1178.5,1688.5C 1177.28,1690.98 1175.28,1691.98 1172.5,1691.5C 1172.43,1690.04 1172.77,1688.71 1173.5,1687.5 Z"/></g>
<g><path style="opacity:1" fill="#fae3df" d="M 844.5,1690.5 C 845.5,1690.5 846.5,1690.5 847.5,1690.5C 847.687,1692.56 848.187,1694.56 849,1696.5C 851.748,1698.46 854.582,1700.29 857.5,1702C 852.442,1703.01 847.609,1702.51 843,1700.5C 842.309,1696.98 842.809,1693.65 844.5,1690.5 Z"/></g>
<g><path style="opacity:1" fill="#efb7b2" d="M 1218.5,1689.5 C 1219.64,1692.64 1219.81,1695.97 1219,1699.5C 1217.66,1700.9 1216.82,1700.57 1216.5,1698.5C 1217.17,1695.48 1217.84,1692.48 1218.5,1689.5 Z"/></g>
<g><path style="opacity:1" fill="#f8d9d5" d="M 1172.5,1695.5 C 1174.92,1695.19 1177.26,1695.53 1179.5,1696.5C 1176.93,1698.85 1174.26,1699.02 1171.5,1697C 1172.06,1696.62 1172.39,1696.12 1172.5,1695.5 Z"/></g>
<g><path style="opacity:1" fill="#f3cac5" d="M 1186.5,1695.5 C 1187.83,1695.5 1189.17,1695.5 1190.5,1695.5C 1190.5,1696.83 1190.5,1698.17 1190.5,1699.5C 1189.17,1699.5 1187.83,1699.5 1186.5,1699.5C 1186.5,1698.17 1186.5,1696.83 1186.5,1695.5 Z"/></g>
<g><path style="opacity:1" fill="#f7d9d5" d="M 1279.5,1698.5 C 1280.68,1698.28 1281.68,1698.61 1282.5,1699.5C 1280.95,1700.8 1279.95,1700.46 1279.5,1698.5 Z"/></g>
<g><path style="opacity:1" fill="#f8dedb" d="M 1355.5,1709.5 C 1359.07,1709.76 1360.4,1711.76 1359.5,1715.5C 1354.74,1715.8 1353.41,1713.8 1355.5,1709.5 Z"/></g>
<g><path style="opacity:1" fill="#f7dad6" d="M 1204.5,1712.5 C 1206.9,1713.83 1206.9,1715.49 1204.5,1717.5C 1203.33,1715.83 1203.33,1714.17 1204.5,1712.5 Z"/></g>
<g><path style="opacity:1" fill="#eeb5b0" d="M 1283.5,1715.5 C 1285.1,1715.31 1286.44,1715.81 1287.5,1717C 1285.54,1717.84 1284.2,1717.34 1283.5,1715.5 Z"/></g>
<g><path style="opacity:1" fill="#f7dad6" d="M 892.5,1716.5 C 894.527,1716.34 896.527,1716.5 898.5,1717C 899.337,1718.01 899.67,1719.18 899.5,1720.5C 897.473,1720.66 895.473,1720.5 893.5,1720C 892.663,1718.99 892.33,1717.82 892.5,1716.5 Z"/></g>
<g><path style="opacity:1" fill="#f7dbd6" d="M 1210.5,1716.5 C 1213.91,1716.38 1215.24,1718.05 1214.5,1721.5C 1212.83,1721.5 1211.17,1721.5 1209.5,1721.5C 1209.37,1719.71 1209.7,1718.04 1210.5,1716.5 Z"/></g>
<g><path style="opacity:1" fill="#f6d1cd" d="M 1158.5,1718.5 C 1159.83,1718.5 1161.17,1718.5 1162.5,1718.5C 1162.88,1720.66 1162.22,1722.33 1160.5,1723.5C 1158.78,1722.33 1158.12,1720.66 1158.5,1718.5 Z"/></g>
<g><path style="opacity:1" fill="#f8dbd8" d="M 763.5,1719.5 C 765.5,1719.5 767.5,1719.5 769.5,1719.5C 769.5,1720.83 769.5,1722.17 769.5,1723.5C 767.5,1723.5 765.5,1723.5 763.5,1723.5C 763.5,1722.17 763.5,1720.83 763.5,1719.5 Z"/></g>
<g><path style="opacity:1" fill="#fbefeb" d="M 1367.5,1723.5 C 1367.76,1724.98 1367.43,1726.31 1366.5,1727.5C 1361.17,1730.17 1355.83,1732.83 1350.5,1735.5C 1349.53,1733.26 1349.19,1730.92 1349.5,1728.5C 1354.48,1726.26 1359.31,1723.59 1364,1720.5C 1365.52,1721.16 1366.69,1722.16 1367.5,1723.5 Z"/></g>
<g><path style="opacity:1" fill="#edafaa" d="M 1259.5,1725.5 C 1262.86,1726.2 1263.19,1727.54 1260.5,1729.5C 1258.36,1728.56 1258.02,1727.23 1259.5,1725.5 Z"/></g>
<g><path style="opacity:1" fill="#f9e4e1" d="M 1135.5,1730.5 C 1136.5,1730.5 1137.5,1730.5 1138.5,1730.5C 1138.5,1731.5 1138.5,1732.5 1138.5,1733.5C 1137.5,1733.5 1136.5,1733.5 1135.5,1733.5C 1135.5,1732.5 1135.5,1731.5 1135.5,1730.5 Z"/></g>
<g><path style="opacity:1" fill="#f9ddda" d="M 1173.5,1730.5 C 1174.75,1731.33 1175.41,1732.67 1175.5,1734.5C 1175.16,1737.18 1174.83,1739.84 1174.5,1742.5C 1173.5,1742.5 1172.5,1742.5 1171.5,1742.5C 1171.19,1738.3 1171.86,1734.3 1173.5,1730.5 Z"/></g>
<g><path style="opacity:1" fill="#f8dbd7" d="M 1145.5,1732.5 C 1149.7,1733.87 1154.03,1735.04 1158.5,1736C 1159.38,1737.36 1159.71,1738.86 1159.5,1740.5C 1155.17,1740.5 1150.83,1740.5 1146.5,1740.5C 1145.91,1737.87 1145.58,1735.21 1145.5,1732.5 Z"/></g>
<g><path style="opacity:1" fill="#f6d2cf" d="M 1132.5,1739.5 C 1141.06,1741.28 1149.06,1744.45 1156.5,1749C 1154.5,1749.67 1152.5,1749.67 1150.5,1749C 1144.87,1746.4 1139.21,1743.9 1133.5,1741.5C 1132.7,1741.04 1132.37,1740.38 1132.5,1739.5 Z"/></g>
<g><path style="opacity:1" fill="#fdf1ee" d="M 1222.5,1744.5 C 1227.51,1744.33 1232.51,1744.5 1237.5,1745C 1238.38,1746.36 1238.71,1747.86 1238.5,1749.5C 1230.72,1751.6 1223.38,1754.76 1216.5,1759C 1215.97,1761.47 1214.63,1763.31 1212.5,1764.5C 1210.84,1763.61 1209.18,1763.11 1207.5,1763C 1203.15,1769.61 1197.48,1771.11 1190.5,1767.5C 1186.64,1769.84 1182.47,1771.51 1178,1772.5C 1171.43,1769.52 1165.26,1770.02 1159.5,1774C 1154.42,1778.41 1150.09,1783.41 1146.5,1789C 1138.17,1789.64 1135.34,1785.81 1138,1777.5C 1144.96,1774.77 1150.46,1770.27 1154.5,1764C 1157.19,1764.5 1159.86,1764.34 1162.5,1763.5C 1166.26,1758.31 1169.76,1752.97 1173,1747.5C 1178.41,1745.04 1183.91,1744.88 1189.5,1747C 1200.77,1747.86 1211.77,1747.03 1222.5,1744.5 Z"/></g>
<g><path style="opacity:1" fill="#f5d3ce" d="M 848.5,1764.5 C 851.833,1764.5 853.5,1766.17 853.5,1769.5C 851.5,1769.5 849.5,1769.5 847.5,1769.5C 847.366,1767.71 847.699,1766.04 848.5,1764.5 Z"/></g>
<g><path style="opacity:1" fill="#f1c2be" d="M 871.5,1763.5 C 872.5,1763.5 873.5,1763.5 874.5,1763.5C 874.5,1764.5 874.5,1765.5 874.5,1766.5C 873.5,1766.5 872.5,1766.5 871.5,1766.5C 871.5,1765.5 871.5,1764.5 871.5,1763.5 Z"/></g>
<g><path style="opacity:1" fill="#f7d9d5" d="M 1211.5,1767.5 C 1215.93,1767.75 1217.27,1769.92 1215.5,1774C 1208.11,1775.28 1206.77,1773.12 1211.5,1767.5 Z"/></g>
<g><path style="opacity:1" fill="#f9e1dc" d="M 1096.5,1775.5 C 1098.5,1775.5 1100.5,1775.5 1102.5,1775.5C 1102.7,1780.49 1100.53,1782.15 1096,1780.5C 1095.36,1778.73 1095.53,1777.07 1096.5,1775.5 Z"/></g>
<g><path style="opacity:1" fill="#fae9e5" d="M 1110.5,1776.5 C 1117.87,1776.46 1125.2,1776.96 1132.5,1778C 1133.71,1780.71 1132.71,1782.38 1129.5,1783C 1123.13,1784.22 1117.13,1783.39 1111.5,1780.5C 1110.57,1779.31 1110.24,1777.98 1110.5,1776.5 Z"/></g>
<g><path style="opacity:1" fill="#f8ddda" d="M 986.5,1789.5 C 991.376,1788.4 993.043,1790.07 991.5,1794.5C 989.604,1795.47 987.604,1795.8 985.5,1795.5C 985.517,1793.44 985.85,1791.44 986.5,1789.5 Z"/></g>
</svg>
