<svg width="32" height="32" viewBox="0 0 32 32" fill="none" xmlns="http://www.w3.org/2000/svg">
<circle cx="16" cy="16" r="16" fill="#EDF9FF"/>
<g clip-path="url(#clip0_7085_84)">
<path d="M9.46233 14.9L9.29029 15.1538C7.31179 18.2 7.7419 22.1769 10.4086 24.7154C11.8709 26.2385 13.9354 27 16 27C16 27 16 27 9.46233 14.9Z" fill="#00A3FF"/>
<path opacity="0.6" d="M16 18.5385L9.4624 14.8154C16 27 16 27 16 27C16 24.3769 16 21.3308 16 18.5385Z" fill="#00A3FF"/>
<path opacity="0.6" d="M22.5376 14.9L22.7097 15.1538C24.6882 18.2 24.2581 22.1769 21.5914 24.7154C20.043 26.2385 18.0645 27 16 27C16 27 16 27 22.5376 14.9Z" fill="#00A3FF"/>
<path opacity="0.2" d="M16 18.5385L22.5376 14.8154C16 27 16 27 16 27C16 24.3769 16 21.3308 16 18.5385Z" fill="#00A3FF"/>
<path opacity="0.2" d="M16 10.3308V16.6769L21.6774 13.5462L16 10.3308Z" fill="#00A3FF"/>
<path opacity="0.6" d="M16.0001 10.3308L10.3226 13.5462L16.0001 16.6769V10.3308Z" fill="#00A3FF"/>
<path d="M16.0001 5L10.3226 13.5462L16.0001 10.3308V5Z" fill="#00A3FF"/>
<path opacity="0.6" d="M16 10.3308L21.6774 13.5462L16 5V10.3308Z" fill="#00A3FF"/>
</g>
<defs>
<clipPath id="clip0_7085_84">
<rect width="16" height="22" fill="white" transform="translate(8 5)"/>
</clipPath>
</defs>
</svg>
