<svg width="32" height="32" viewBox="0 0 32 32" fill="none" xmlns="http://www.w3.org/2000/svg">
<rect width="32" height="32" rx="16" fill="#6EC98B"/>
<path fill-rule="evenodd" clip-rule="evenodd" d="M12.4354 10.1666C9.32895 11.237 7.09717 14.1858 7.09717 17.6558C7.09717 22.0295 10.6428 25.5751 15.0165 25.5751C18.4586 25.5751 21.3878 23.3791 22.4795 20.3117H20.1251C19.1652 22.1542 17.2378 23.4123 15.0165 23.4123C11.8373 23.4123 9.25999 20.835 9.25999 17.6558C9.25999 15.4046 10.5522 13.4552 12.4354 12.509V10.1666Z" fill="white"/>
<path fill-rule="evenodd" clip-rule="evenodd" d="M24.9028 7.13872C22.6257 5.88004 19.7028 6.21657 17.771 8.14833C17.1312 8.78818 16.6664 9.53676 16.3765 10.3346H14.6146L14.1017 11.6756H16.0584C16.0066 12.1129 16.0029 12.5547 16.0474 12.9926H14.5705L14.1017 14.3336H16.3413C16.628 15.1688 17.1046 15.9532 17.771 16.6196C18.9829 17.8315 20.5848 18.4155 22.1726 18.3718L22.8304 18.3175C23.5248 18.2217 24.2056 18.004 24.8382 17.6644L24.8382 15.692C23.1275 17.1595 20.5481 17.0831 18.9278 15.4629C18.588 15.123 18.3161 14.741 18.1121 14.3336H22.616L23.0848 12.9926H17.695C17.6337 12.5557 17.6387 12.1113 17.7102 11.6756H23.4169L23.9298 10.3346H18.1637C18.3611 9.96458 18.6159 9.61707 18.9278 9.30511C20.411 7.8219 22.6981 7.63244 24.3867 8.73673L24.9028 7.13872Z" fill="white"/>
</svg>
