<svg width="32" height="32" viewBox="0 0 32 32" fill="none" xmlns="http://www.w3.org/2000/svg">
<g clip-path="url(#clip0_7085_463)">
<path d="M16 32C24.8667 32 32 24.8667 32 16C32 7.13328 24.8667 0 16 0C7.13328 0 0 7.13328 0 16C0 24.8667 7.13328 32 16 32Z" fill="#2775CA"/>
<path d="M20.4 18.5333C20.4 16.2 19 15.4 16.2 15.0667C14.2 14.8 13.8 14.2667 13.8 13.3333C13.8 12.3998 14.4667 11.8 15.8 11.8C17 11.8 17.6667 12.2 18 13.2C18.0667 13.4 18.2667 13.5333 18.4667 13.5333H19.5332C19.8 13.5333 20 13.3333 20 13.0667V13C19.7332 11.5333 18.5332 10.4 17 10.2667V8.66672C17 8.4 16.8 8.2 16.4667 8.13328H15.4667C15.2 8.13328 15 8.33328 14.9332 8.66672V10.2C12.9332 10.4667 11.6667 11.8 11.6667 13.4667C11.6667 15.6667 13 16.5333 15.8 16.8667C17.6667 17.2 18.2667 17.6 18.2667 18.6667C18.2667 19.7334 17.3332 20.4667 16.0667 20.4667C14.3332 20.4667 13.7332 19.7333 13.5332 18.7333C13.4667 18.4667 13.2667 18.3333 13.0667 18.3333H11.9332C11.6667 18.3333 11.4667 18.5333 11.4667 18.8V18.8667C11.7332 20.5333 12.8 21.7333 15 22.0667V23.6667C15 23.9333 15.2 24.1333 15.5332 24.2H16.5332C16.8 24.2 17 24 17.0667 23.6667V22.0667C19.0667 21.7333 20.4 20.3333 20.4 18.5333Z" fill="white"/>
<path d="M12.6 25.5333C7.39996 23.6667 4.73324 17.8667 6.66668 12.7333C7.66668 9.93328 9.86668 7.8 12.6 6.8C12.8667 6.66672 13 6.46672 13 6.13328V5.2C13 4.93328 12.8667 4.73328 12.6 4.66672C12.5332 4.66672 12.4 4.66672 12.3332 4.73328C5.99996 6.73328 2.53324 13.4667 4.53324 19.8C5.73324 23.5333 8.59996 26.4 12.3332 27.6C12.6 27.7333 12.8667 27.6 12.9332 27.3333C13 27.2667 13 27.2 13 27.0667V26.1333C13 25.9333 12.8 25.6667 12.6 25.5333ZM19.6667 4.73328C19.4 4.6 19.1332 4.73328 19.0667 5C19 5.06672 19 5.13328 19 5.26672V6.2C19 6.46672 19.2 6.73328 19.4 6.86672C24.6 8.73328 27.2667 14.5333 25.3332 19.6667C24.3332 22.4667 22.1332 24.6 19.4 25.6C19.1332 25.7333 19 25.9333 19 26.2667V27.2C19 27.4667 19.1332 27.6667 19.4 27.7333C19.4667 27.7333 19.6 27.7333 19.6667 27.6667C26 25.6667 29.4667 18.9333 27.4667 12.6C26.2667 8.8 23.3332 5.93328 19.6667 4.73328Z" fill="white"/>
</g>
<defs>
<clipPath id="clip0_7085_463">
<rect width="32" height="32" fill="white"/>
</clipPath>
</defs>
</svg>
